<?xml version="1.0" standalone="no"?>
<!DOCTYPE svg PUBLIC "-//W3C//DTD SVG 20010904//EN"
 "http://www.w3.org/TR/2001/REC-SVG-20010904/DTD/svg10.dtd">
<svg version="1.0" xmlns="http://www.w3.org/2000/svg"
 width="16.000000pt" height="16.000000pt" viewBox="0 0 16.000000 16.000000"
 preserveAspectRatio="xMidYMid meet">
<metadata>
Created by potrace 1.11, written by Peter Selinger 2001-2013
</metadata>
<g transform="translate(0.000000,16.000000) scale(0.001600,-0.001600)"
fill="#000000" stroke="none">
<path d="M3500 7823 c-38 -13 -134 -143 -147 -198 -1 -5 -5 -21 -8 -35 -32
-128 5 -194 114 -204 85 -8 178 70 198 164 11 55 13 134 3 169 -21 79 -95 127
-160 104z"/>
<path d="M6700 7439 c-72 -20 -104 -43 -138 -101 -9 -16 -20 -28 -24 -28 -4 0
-8 -7 -8 -15 0 -7 -8 -19 -17 -24 -10 -6 -14 -11 -10 -11 4 0 -6 -20 -23 -45
-17 -25 -27 -45 -23 -45 4 0 3 -4 -2 -8 -13 -9 -58 -102 -58 -119 0 -7 -4 -13
-8 -13 -4 0 -12 -12 -17 -27 -6 -16 -29 -77 -51 -138 -35 -93 -97 -298 -117
-385 -11 -50 -25 -116 -30 -150 -3 -19 -7 -37 -9 -40 -4 -6 -18 -114 -18 -137
0 -7 -3 -13 -6 -13 -7 0 -8 -20 -9 -185 -2 -152 0 -185 10 -185 5 0 7 -9 3
-19 -3 -11 -1 -22 5 -26 6 -3 8 -10 6 -13 -7 -11 59 -144 67 -136 4 4 7 2 7
-5 0 -7 7 -19 15 -27 8 -9 15 -12 15 -8 0 4 8 -3 19 -14 10 -12 21 -19 25 -15
3 3 6 -1 6 -10 0 -11 5 -14 15 -11 8 4 22 0 31 -7 19 -16 39 -21 77 -20 16 1
26 -3 23 -7 -8 -13 57 -9 66 3 5 7 8 6 8 -1 0 -6 14 -9 33 -7 17 2 50 6 72 8
39 4 77 11 83 15 1 2 5 3 10 5 4 1 14 5 22 8 40 17 76 30 90 33 8 2 20 11 28
21 7 10 15 16 18 14 8 -5 64 21 64 30 0 5 5 9 11 9 12 0 103 60 107 72 2 4 9
8 15 8 7 0 28 14 47 30 19 16 39 30 43 30 4 0 22 13 40 30 18 16 35 30 39 30
4 0 28 20 53 44 55 54 57 76 13 142 -39 58 -87 92 -125 90 -37 -2 -123 -42
-123 -56 0 -6 -4 -9 -9 -6 -5 3 -20 -4 -35 -15 -14 -11 -26 -17 -26 -12 0 4
-4 4 -8 -2 -11 -16 -82 -46 -93 -40 -5 4 -9 1 -9 -5 0 -7 -7 -10 -15 -7 -8 4
-17 2 -21 -4 -4 -7 -10 -6 -18 0 -7 6 -15 8 -18 5 -3 -2 -24 3 -47 12 -28 11
-41 22 -41 36 0 10 -4 16 -10 13 -5 -3 -10 3 -10 14 0 11 -4 23 -10 26 -20 12
-11 34 13 28 38 -9 127 -10 127 -1 0 5 5 6 10 3 6 -3 10 0 10 7 0 9 3 9 10 -2
6 -10 10 -11 10 -2 0 6 7 12 15 12 8 0 15 5 15 11 0 5 5 7 10 4 6 -3 10 -1 10
5 0 6 4 9 9 6 5 -3 11 1 15 9 3 8 10 15 16 15 11 0 28 12 60 44 11 11 20 16
20 11 0 -5 7 1 16 13 8 12 22 22 30 22 8 0 13 4 9 9 -3 5 4 12 15 16 11 4 18
11 15 16 -4 5 -1 9 4 9 6 0 27 16 47 35 19 19 32 35 28 35 -4 0 3 9 16 20 13
11 20 20 17 20 -4 0 2 9 12 19 23 23 77 135 86 176 14 70 16 94 16 159 -1 192
-57 358 -169 496 -120 146 -247 222 -382 226 -41 2 -91 -1 -110 -7z m256 -242
c14 -26 16 -54 11 -177 -3 -80 -8 -160 -11 -178 -3 -18 -8 -50 -11 -70 -3 -21
-8 -49 -10 -62 -3 -14 -8 -38 -10 -54 -3 -16 -11 -38 -17 -50 -6 -11 -10 -23
-9 -26 12 -29 -91 -284 -139 -343 -8 -11 -29 -35 -45 -54 -30 -34 -31 -34 -35
-11 -6 40 -5 261 3 318 17 133 49 279 89 415 11 39 21 75 23 80 1 6 6 19 10
30 31 77 44 115 38 115 -4 0 2 7 13 15 10 8 15 15 11 15 -4 0 -3 6 3 13 5 6
20 24 31 40 23 31 33 29 55 -16z"/>
<path d="M3425 7316 c-60 -26 -132 -138 -149 -228 -3 -13 -5 -24 -7 -25 -1 -2
-2 -6 -4 -10 -1 -5 -5 -15 -8 -23 -8 -18 -57 -207 -61 -235 -2 -11 -5 -21 -6
-22 -1 -2 -3 -11 -4 -20 -1 -10 -5 -24 -9 -30 -5 -7 -6 -13 -3 -13 2 0 0 -15
-5 -32 -5 -18 -12 -46 -14 -63 -9 -52 -24 -129 -30 -155 -3 -14 -8 -41 -11
-60 -2 -19 -7 -46 -9 -60 -3 -14 -8 -51 -12 -82 -3 -32 -9 -58 -12 -58 -3 0
-6 -17 -7 -38 0 -20 -4 -66 -8 -102 -18 -161 -23 -360 -12 -465 6 -60 38 -154
67 -202 25 -40 66 -83 79 -83 4 0 11 -6 13 -12 4 -9 6 -9 6 -1 1 6 10 9 21 6
34 -9 69 6 110 47 22 22 37 40 33 40 -3 0 1 8 10 18 8 9 16 19 16 22 0 3 5 19
11 35 19 50 91 391 106 500 2 17 6 41 9 55 2 14 7 39 9 55 18 114 26 165 30
200 3 22 7 56 10 75 13 90 15 110 21 185 4 44 9 96 11 115 11 86 13 469 3 520
-26 133 -99 188 -194 146z"/>
<path d="M5899 7173 c-84 -58 -147 -177 -210 -392 -38 -128 -188 -686 -195
-721 -3 -14 -8 -34 -11 -45 -4 -11 -8 -24 -9 -30 -1 -5 -7 -30 -14 -55 -11
-40 -16 -59 -23 -95 -2 -5 -6 -16 -10 -22 -5 -7 -6 -13 -2 -13 3 0 1 -8 -4
-18 -6 -11 -12 -31 -15 -46 -7 -40 -76 -288 -86 -311 -6 -15 -9 -4 -10 40 -1
33 -4 98 -6 145 -2 47 -6 200 -9 340 -6 269 -12 406 -19 455 -2 17 -4 38 -5
48 -1 9 -13 30 -28 45 -23 23 -36 27 -73 27 -42 -1 -98 -15 -145 -35 -101 -43
-136 -61 -167 -89 -37 -32 -92 -124 -81 -135 4 -3 2 -6 -4 -6 -5 0 -10 -6 -11
-12 0 -7 -3 -25 -6 -40 -15 -70 -17 -87 -23 -153 -12 -132 -6 -419 11 -515 3
-14 7 -45 10 -70 8 -59 16 -102 21 -118 5 -13 18 -99 18 -119 0 -7 3 -13 7
-13 3 0 7 -15 8 -32 2 -18 7 -34 12 -36 5 -2 5 -13 0 -28 -6 -14 -6 -23 -1
-20 11 7 24 -41 16 -54 -4 -6 -1 -10 5 -10 6 0 8 -5 5 -10 -4 -6 -11 -8 -16
-5 -5 3 -6 -2 -2 -11 5 -12 3 -15 -6 -9 -10 6 -11 3 -2 -14 14 -25 23 -28 14
-4 -4 11 -3 14 5 9 8 -5 10 -1 5 10 -4 12 -3 15 6 10 8 -5 10 -18 6 -33 -3
-14 -2 -22 2 -20 5 3 10 -6 11 -21 1 -14 7 -29 13 -33 7 -4 5 -8 -4 -12 -9 -3
-21 2 -29 11 -7 9 -8 13 -1 9 6 -4 10 -2 9 5 -3 22 -17 39 -27 33 -5 -4 -9 -1
-9 4 0 6 -5 11 -12 11 -9 0 -9 -3 0 -12 19 -19 14 -29 -7 -16 -11 7 -18 15
-15 19 5 9 -35 23 -43 15 -4 -3 1 -6 9 -6 9 0 19 -7 22 -16 8 -21 8 -21 -9
-21 -10 0 -14 6 -10 16 4 14 3 14 -8 -1 -9 -12 -18 -14 -30 -7 -9 6 -17 15
-17 21 0 7 5 6 15 -2 9 -7 15 -8 15 -2 0 24 -68 35 -80 12 -7 -12 -4 -16 13
-17 17 -2 18 0 7 7 -8 5 -12 12 -8 15 6 6 38 -22 38 -34 0 -14 -60 -5 -73 11
-17 22 -47 18 -75 -10 -23 -23 -24 -23 -43 -6 -21 19 -18 34 4 16 8 -7 18 -7
27 -2 16 10 14 11 -40 15 -35 2 -70 -12 -70 -29 0 -4 7 -3 15 4 8 7 15 9 15 4
0 -15 -14 -29 -32 -32 -12 -2 -16 4 -13 25 2 16 -1 33 -6 39 -6 8 -4 14 6 18
9 3 13 10 10 16 -3 6 4 10 17 10 17 0 20 2 9 9 -12 8 -12 11 0 23 8 8 21 13
29 11 13 -4 13 -3 1 5 -13 9 -13 13 0 28 10 13 10 16 1 10 -10 -6 -11 -4 -4
10 49 95 71 277 49 399 -12 70 -30 80 -73 40 -15 -14 -24 -25 -20 -25 4 0 -2
-13 -13 -29 -12 -16 -21 -32 -21 -36 0 -10 -72 -75 -83 -75 -4 0 -6 -4 -3 -9
4 -5 -2 -8 -11 -7 -10 2 -28 0 -40 -5 -13 -5 -25 -4 -28 2 -4 5 -10 7 -15 4
-15 -9 -72 48 -91 90 -10 22 -21 67 -25 100 -14 107 -8 367 11 505 2 19 7 55
10 80 3 25 8 52 10 60 4 15 14 68 20 105 9 58 48 218 67 270 33 92 106 236
133 261 13 12 21 25 18 28 -4 3 -2 6 3 6 43 0 34 -110 -31 -385 -5 -23 -14
-61 -19 -90 -7 -33 -28 -115 -48 -190 -11 -38 -20 -74 -22 -80 -7 -30 -20 -65
-37 -102 -10 -24 -19 -50 -19 -58 0 -8 -4 -15 -10 -15 -5 0 -10 -6 -10 -12 0
-7 -6 -25 -14 -40 -26 -50 0 -149 44 -163 11 -3 20 -10 20 -15 0 -5 12 -6 28
-4 15 3 35 6 45 7 9 1 17 5 17 10 0 4 5 5 10 2 6 -3 10 -1 10 6 0 7 3 10 6 7
3 -4 22 12 42 35 20 23 40 44 45 45 4 2 7 10 7 17 0 7 3 15 8 17 28 12 119
266 147 413 48 245 55 506 17 625 -22 68 -62 136 -106 182 -36 38 -125 69
-178 62 -75 -10 -91 -13 -97 -21 -6 -8 -14 -10 -51 -18 -8 -2 -17 -4 -20 -5
-3 -1 -8 -2 -12 -1 -5 0 -8 -3 -8 -8 0 -5 -11 -12 -25 -15 -14 -4 -25 -11 -25
-16 0 -6 -6 -10 -14 -10 -8 0 -22 -7 -30 -16 -9 -8 -16 -13 -16 -10 0 3 -9 -2
-19 -11 -77 -70 -98 -96 -114 -139 -20 -52 -65 -195 -72 -229 -8 -39 -13 -61
-28 -120 -9 -33 -19 -80 -22 -105 -4 -24 -8 -47 -10 -50 -2 -3 -6 -26 -10 -50
-3 -25 -10 -72 -15 -105 -21 -139 -28 -352 -15 -495 8 -99 15 -135 48 -250 55
-192 119 -308 252 -453 19 -21 35 -36 35 -32 0 3 10 -4 23 -16 20 -19 61 -41
80 -43 4 -1 11 -6 15 -11 10 -15 111 -19 127 -5 8 6 19 9 25 5 5 -3 10 -1 10
4 0 6 4 11 8 11 5 0 9 -7 9 -14 0 -8 -3 -15 -6 -14 -31 3 -34 -10 -14 -47 6
-11 11 -24 11 -30 0 -5 6 -11 12 -13 9 -3 9 1 1 16 -6 11 -11 23 -11 27 0 10
34 1 48 -13 8 -7 17 -10 22 -7 5 3 10 -1 13 -7 2 -7 8 -9 13 -5 5 4 2 12 -5
16 -9 6 -10 11 -2 15 6 4 11 2 11 -3 0 -8 7 -7 19 1 11 7 17 16 14 20 -2 5
-11 4 -19 -3 -10 -8 -14 -8 -14 0 0 10 13 15 33 12 4 0 7 3 7 9 0 5 -7 10 -15
10 -8 0 -15 4 -15 9 0 5 11 9 24 9 24 0 28 -11 12 -37 -7 -10 -6 -12 4 -6 8 5
11 4 6 -3 -7 -11 12 -11 32 1 7 5 12 3 12 -5 0 -9 3 -9 10 2 8 12 10 12 10 1
0 -11 3 -11 15 -1 8 7 12 16 9 21 -3 5 0 9 5 9 6 0 10 5 9 11 -2 6 3 14 10 16
11 4 12 1 3 -16 -8 -15 -9 -27 -2 -39 8 -13 10 -14 11 -2 0 13 1 13 10 0 8
-12 10 -12 10 -1 0 11 3 11 17 0 15 -12 16 -12 8 1 -8 13 -7 13 11 0 18 -14
18 -14 4 5 -14 19 -14 19 4 5 16 -12 18 -12 11 -1 -6 10 -4 12 5 6 8 -5 11 -4
7 1 -3 5 10 10 28 10 18 0 31 -4 29 -8 -2 -4 5 -5 16 -3 17 3 19 1 10 -15 -7
-13 -7 -21 0 -25 5 -3 11 -1 11 4 3 26 4 30 11 36 4 4 4 14 1 23 -3 10 4 5 16
-10 12 -15 28 -25 35 -22 21 8 28 -12 9 -27 -14 -12 -16 -12 -9 0 6 9 5 12 -5
9 -8 -3 -13 -11 -11 -18 2 -10 -1 -10 -14 1 -16 12 -17 12 -12 -1 3 -9 -3 -26
-13 -39 -18 -22 -22 -23 -44 -11 -14 7 -25 18 -25 23 0 5 6 4 14 -3 12 -9 15
-8 13 9 -2 25 -7 26 -32 7 -16 -12 -17 -16 -6 -29 17 -21 8 -34 -21 -32 -13 1
-32 -5 -43 -14 -19 -15 -19 -15 -4 4 20 26 24 72 4 55 -8 -6 -12 -17 -9 -25 8
-21 -12 -27 -27 -7 -13 16 -13 16 5 2 17 -13 19 -13 14 0 -3 8 -14 15 -26 14
-11 0 -18 5 -16 11 3 6 -5 12 -16 13 -44 4 -50 6 -50 15 0 5 7 7 14 4 9 -4 13
-1 10 6 -2 7 -13 13 -23 14 -15 1 -18 -4 -16 -23 1 -13 -4 -32 -11 -41 -8 -12
-9 -22 -2 -30 6 -8 6 -18 -2 -30 -10 -16 -10 -16 -5 4 3 12 1 24 -5 28 -6 3
-10 -4 -11 -17 -1 -18 -2 -19 -6 -5 -3 10 3 27 13 38 9 10 15 22 12 25 -3 3
-15 -7 -27 -22 -19 -24 -27 -20 -22 10 1 5 -5 6 -14 2 -11 -4 -14 -2 -9 6 5 8
2 9 -10 5 -10 -4 -27 -2 -38 4 -17 9 -19 8 -13 -10 4 -14 0 -23 -15 -31 -11
-6 -20 -18 -20 -28 0 -14 -2 -15 -10 -2 -7 11 -3 19 15 30 14 8 25 18 25 22 0
11 -28 10 -32 -1 -1 -5 -10 -11 -18 -13 -8 -2 -25 -13 -37 -26 -14 -14 -23
-18 -23 -10 0 14 40 44 53 40 5 -2 7 3 5 9 -2 7 -16 13 -32 15 -24 2 -26 1
-14 -14 9 -11 10 -14 1 -8 -7 4 -13 2 -13 -3 0 -6 -5 -11 -10 -11 -6 0 -9 3
-9 8 3 20 -2 33 -11 27 -6 -4 -8 -11 -5 -16 4 -5 1 -9 -5 -9 -7 0 -9 7 -6 16
4 10 2 14 -6 11 -7 -2 -12 -10 -10 -16 1 -6 -2 -11 -8 -11 -5 0 -10 6 -10 13
0 8 -4 7 -10 -3 -8 -12 -13 -13 -30 -2 -11 6 -25 12 -32 12 -8 0 -5 -5 5 -11
9 -5 17 -15 17 -22 0 -7 -4 -6 -10 3 -5 8 -12 11 -15 8 -9 -9 2 -26 27 -39 18
-10 19 -8 13 13 -5 20 -4 20 5 5 17 -27 2 -41 -25 -23 -21 14 -24 14 -29 0 -3
-8 -10 -13 -15 -10 -5 4 -12 -2 -14 -11 -3 -10 -4 -1 -2 20 1 21 -2 40 -6 43
-5 3 -9 0 -9 -5 0 -6 -5 -11 -12 -11 -6 0 -8 3 -5 7 8 8 -11 33 -25 33 -6 0
-5 -7 2 -15 10 -12 10 -18 -1 -31 -11 -13 -11 -15 2 -14 26 4 39 0 39 -11 0
-7 -5 -8 -12 -3 -19 14 -51 11 -56 -5 -3 -10 0 -11 9 -5 12 6 12 5 0 -9 -8
-10 -10 -21 -6 -25 4 -4 10 -1 12 6 3 6 9 12 15 12 6 0 6 -6 -2 -15 -7 -8 -8
-15 -2 -15 5 0 15 6 21 14 10 11 8 17 -6 25 -10 6 -13 11 -7 11 18 0 46 -37
42 -57 -2 -10 -10 -17 -16 -15 -17 3 -15 -19 4 -46 8 -12 13 -26 10 -30 -3 -5
3 -9 12 -9 28 -2 44 6 37 17 -5 8 -12 7 -23 -2 -15 -12 -16 -11 -3 5 13 16 15
16 32 1 22 -20 24 -25 8 -22 -6 2 -14 -3 -16 -9 -3 -7 2 -13 11 -13 21 0 20
-16 -1 -29 -10 -6 -13 -11 -6 -11 6 0 14 4 17 9 11 17 56 -1 56 -22 0 -7 -4
-6 -11 3 -9 13 -10 13 -6 0 2 -9 14 -15 30 -14 22 1 25 -1 17 -17 -13 -23 -13
-39 0 -39 5 0 6 7 3 17 -4 10 -2 14 4 10 6 -4 14 -1 17 5 3 7 4 2 3 -11 -1
-19 4 -26 23 -31 14 -4 24 -12 23 -18 -2 -6 6 -14 17 -17 11 -4 20 -13 20 -21
0 -12 19 -19 43 -15 5 1 6 -3 2 -9 -6 -10 9 -15 30 -10 6 1 7 -2 3 -6 -8 -7
32 -41 44 -37 6 2 43 -68 41 -78 -1 -3 8 -5 20 -5 16 1 21 -4 19 -19 -2 -16
-1 -17 7 -5 7 9 6 19 -1 27 -6 7 -6 13 -2 13 5 0 15 -9 22 -20 7 -12 17 -18
22 -15 13 8 13 -1 -1 -26 -5 -11 -14 -17 -20 -14 -5 4 -9 1 -9 -5 0 -7 7 -9
16 -6 9 3 18 6 20 6 2 0 4 7 4 15 0 8 5 15 11 15 6 0 9 -6 6 -12 -2 -7 -1 -22
3 -32 6 -19 7 -19 12 2 4 14 2 20 -4 15 -7 -3 -8 -1 -4 5 11 19 76 -35 76 -64
0 -28 16 -40 24 -18 3 8 2 12 -4 9 -6 -3 -10 -1 -10 4 0 6 5 11 10 11 19 0 22
-28 5 -57 l-17 -28 23 27 c19 21 28 25 42 17 13 -8 15 -14 7 -30 -6 -10 -8
-19 -5 -19 3 0 1 -9 -5 -20 -15 -29 -5 -25 15 6 9 15 11 23 4 19 -8 -6 -10 -4
-5 4 6 9 13 8 27 -5 13 -12 16 -21 9 -29 -6 -8 -5 -18 4 -30 12 -16 13 -17 19
-1 4 9 3 14 -2 11 -5 -3 -13 0 -16 6 -5 7 0 10 11 7 12 -2 19 -11 18 -26 -1
-16 2 -20 10 -13 8 7 12 4 14 -10 1 -10 2 -27 3 -36 2 -18 17 -33 33 -33 6 0
1 7 -10 15 -16 13 -16 14 -1 9 17 -6 40 -39 42 -59 1 -5 7 -9 15 -7 8 2 12 0
8 -4 -4 -3 2 -18 12 -32 11 -13 20 -29 20 -34 0 -5 9 -18 20 -30 10 -12 17
-25 14 -30 -3 -4 2 -11 10 -14 27 -10 18 -23 -14 -19 -16 2 -32 0 -34 -4 -3
-4 8 -7 24 -6 34 2 40 -1 63 -37 19 -30 23 -63 7 -53 -15 9 -12 -4 4 -21 19
-18 32 -18 17 0 -7 8 -8 17 -3 20 6 3 13 -4 17 -17 4 -12 8 -25 10 -29 1 -5 3
-14 4 -20 1 -9 4 -9 12 2 9 13 10 13 6 0 -2 -8 2 -23 11 -32 10 -12 11 -18 4
-18 -7 0 -12 -6 -12 -14 0 -8 -5 -18 -12 -22 -7 -5 -8 -3 -3 6 5 9 4 11 -4 6
-6 -4 -9 -11 -6 -16 6 -9 -11 -49 -24 -60 -3 -3 -11 -14 -18 -25 -82 -139
-103 -176 -103 -185 0 -5 -4 -10 -10 -10 -5 0 -9 -3 -8 -7 1 -5 -15 -41 -34
-80 -20 -40 -34 -73 -31 -73 3 0 1 -6 -4 -12 -5 -7 -20 -42 -32 -78 -13 -36
-27 -73 -32 -83 -5 -10 -7 -22 -4 -27 4 -6 1 -10 -4 -10 -6 0 -10 -3 -9 -7 1
-5 -4 -33 -12 -63 -7 -30 -15 -64 -16 -75 -1 -11 -3 -20 -4 -20 -3 0 -9 -39
-16 -100 -19 -157 1 -333 49 -438 24 -53 96 -137 117 -137 6 0 21 -5 33 -12
32 -17 127 -7 127 14 0 5 5 6 11 2 6 -3 24 3 40 15 15 11 31 21 33 21 16 0
185 164 226 219 14 19 37 48 52 65 15 17 28 34 28 37 0 3 11 19 25 35 14 16
25 32 25 36 0 4 6 13 13 20 6 7 30 40 52 72 22 33 45 65 52 71 7 7 9 15 6 19
-4 3 -2 6 4 6 5 0 15 11 21 25 23 49 30 25 26 -82 -2 -60 -6 -126 -9 -148 -3
-22 -7 -65 -9 -95 -5 -62 -8 -82 -37 -260 -18 -108 -26 -135 -62 -199 -42 -73
-86 -121 -113 -121 -25 0 -28 50 -6 119 17 56 56 207 67 263 2 9 8 25 14 36 6
11 12 39 13 63 3 39 1 44 -17 41 -11 -2 -24 -10 -28 -18 -4 -8 -12 -14 -16
-14 -12 0 -231 -217 -231 -228 0 -6 -4 -12 -8 -14 -4 -2 -33 -34 -64 -73 -31
-38 -70 -80 -88 -93 -61 -45 -81 -109 -48 -150 27 -31 100 -64 157 -69 197
-18 527 129 727 326 59 58 73 78 88 127 10 33 20 66 23 74 3 8 7 24 9 35 1 11
9 47 17 80 9 33 18 76 21 96 3 20 8 42 10 50 3 8 7 25 10 39 2 14 9 52 15 85
6 33 12 72 13 88 1 15 6 27 11 27 5 0 6 7 3 16 -5 12 -2 15 10 10 8 -3 18 -6
20 -6 3 0 2 -5 -2 -12 -4 -6 -3 -8 4 -4 11 7 8 44 -4 55 -4 3 -4 -2 -1 -11 7
-19 -8 -25 -18 -7 -9 14 0 22 27 23 13 1 29 6 37 10 10 6 12 5 7 -2 -10 -16 7
-15 23 0 11 10 13 10 7 1 -4 -7 -3 -13 2 -13 6 0 12 6 15 14 3 7 16 13 29 12
13 -1 29 2 36 7 8 7 12 4 12 -7 0 -10 -4 -15 -8 -12 -4 2 -8 -6 -8 -19 0 -12
5 -21 11 -19 6 3 10 -22 11 -68 1 -101 16 -183 47 -248 17 -37 59 -78 82 -82
11 -2 23 -6 26 -11 3 -4 33 7 67 24 79 39 161 119 231 224 14 22 31 46 38 53
6 6 15 21 18 32 3 11 10 20 15 20 4 0 10 8 14 18 3 9 20 40 37 67 16 28 35 62
42 78 6 15 14 27 18 27 4 0 13 15 20 33 7 17 30 60 51 95 21 34 38 67 38 72 0
6 7 10 16 10 8 0 12 5 9 10 -9 14 14 42 28 33 6 -4 8 0 4 10 -5 14 17 33 36
29 4 -1 7 3 7 8 0 6 5 10 11 10 7 0 8 -4 2 -12 -5 -7 -8 -24 -7 -38 1 -14 4
-51 5 -83 1 -32 6 -60 11 -63 4 -3 5 -10 2 -16 -4 -6 0 -14 7 -19 12 -7 12 -9
0 -9 -11 0 -11 -3 0 -16 7 -9 18 -26 24 -38 7 -11 17 -20 24 -18 6 1 14 -5 17
-13 5 -13 9 -13 22 -3 8 7 16 11 16 9 2 -9 46 11 46 21 0 6 3 9 6 5 14 -14
155 148 249 288 92 135 117 192 111 247 -17 129 -20 186 -20 313 1 206 7 309
19 317 6 5 5 8 -3 8 -7 0 -10 5 -7 11 4 6 9 65 11 133 4 130 -12 216 -42 216
-8 0 -14 4 -14 8 0 13 -31 8 -65 -9 -25 -12 -34 -13 -55 -2 -25 13 -22 16 15
15 17 -1 17 0 3 4 -10 3 -18 10 -18 15 0 5 -5 9 -11 9 -5 0 -7 -4 -4 -10 3 -5
1 -10 -5 -10 -7 0 -10 7 -6 15 3 8 0 15 -7 15 -7 1 -1 8 13 16 15 9 17 13 6
10 -24 -8 -47 11 -39 31 4 11 2 14 -6 9 -6 -4 -10 -4 -9 1 1 4 -8 27 -20 49
-11 23 -18 44 -15 48 4 3 1 6 -5 6 -7 0 -11 6 -10 13 2 6 -3 11 -9 9 -21 -4
-15 8 10 18 16 6 18 9 5 9 -12 1 -16 7 -12 19 5 14 4 14 -4 2 -6 -8 -8 -18 -6
-22 3 -4 1 -8 -4 -8 -6 0 -13 7 -16 16 -3 8 -2 12 4 9 6 -3 10 -1 10 4 0 6 -7
11 -15 11 -8 0 -12 6 -9 13 3 8 -3 20 -13 28 -17 13 -17 13 -4 -6 15 -20 15
-20 -5 -1 -13 13 -15 20 -7 23 8 3 0 16 -19 35 -28 27 -29 31 -10 26 30 -8 28
0 -4 12 -14 6 -22 14 -19 20 3 5 2 10 -4 10 -6 0 -8 8 -4 18 5 15 4 15 -8 -1
-14 -17 -15 -17 -16 4 -1 12 2 30 7 39 6 12 5 17 -4 17 -7 0 -13 -5 -12 -11 0
-6 -3 -12 -9 -13 -5 -1 -9 5 -7 14 2 8 -1 12 -6 9 -9 -5 -27 39 -24 56 1 4 -4
5 -11 3 -12 -5 -44 51 -39 68 1 5 -2 6 -8 2 -5 -3 -10 -1 -10 4 0 6 -5 11 -12
11 -6 0 -5 -7 5 -18 13 -14 14 -21 5 -30 -7 -7 -16 -12 -22 -12 -5 0 -1 7 10
16 19 15 19 15 -2 9 -15 -4 -24 0 -28 11 -5 14 -4 15 8 5 12 -10 15 -9 13 7
-1 13 -8 20 -19 19 -10 -1 -18 -4 -18 -8 0 -4 -13 -5 -29 -3 -22 4 -33 -1 -45
-17 -8 -13 -19 -20 -22 -16 -4 4 4 16 17 27 22 19 22 20 4 18 -23 -3 -46 -29
-38 -42 4 -5 1 -6 -5 -2 -7 4 -12 2 -12 -5 0 -7 -3 -10 -6 -6 -8 8 37 67 48
61 4 -3 8 5 8 18 -1 21 -3 20 -33 -15 -18 -20 -36 -37 -42 -37 -5 0 -3 5 7 10
14 9 15 50 1 50 -12 0 -43 -22 -43 -31 0 -6 7 -6 20 1 11 6 20 7 20 2 0 -6 -9
-12 -20 -15 -21 -5 -29 -29 -8 -25 6 2 13 -6 15 -17 3 -18 2 -18 -5 -2 -4 10
-12 18 -17 18 -6 0 -11 5 -11 12 -4 29 -6 31 -15 12 l-9 -20 1 20 c2 36 -1 46
-11 40 -5 -3 -7 -12 -4 -19 7 -19 -8 -27 -26 -15 -13 8 -11 12 8 26 21 15 33
41 13 28 -5 -3 -13 0 -17 6 -5 8 -3 9 6 4 9 -6 11 -4 5 5 -6 9 -4 11 5 5 9 -6
11 -4 5 6 -5 8 -4 11 0 6 5 -4 20 0 34 10 25 16 25 16 11 -2 -12 -15 -12 -17
-1 -10 10 6 12 4 6 -5 -6 -9 -4 -11 5 -5 9 6 11 4 5 -6 -7 -12 -6 -12 6 0 10
10 11 15 2 18 -7 2 -9 11 -7 18 5 11 9 12 19 2 9 -8 10 -18 4 -30 -7 -12 -6
-17 3 -15 6 2 13 -3 14 -9 1 -7 2 -18 3 -24 0 -5 6 -7 11 -4 7 4 6 13 -1 27
-9 16 -8 19 2 13 8 -6 10 -4 5 6 -4 8 -1 6 7 -4 15 -18 16 -18 26 0 6 10 11
13 11 7 0 -7 8 -11 18 -10 9 0 16 -5 14 -12 -1 -8 2 -11 9 -6 8 4 9 3 5 -4 -5
-8 -2 -10 8 -6 9 3 16 1 16 -5 0 -6 -5 -10 -11 -9 -6 2 -14 -3 -16 -10 -4 -11
-1 -12 15 -3 10 6 22 7 26 3 4 -3 4 1 0 11 -3 10 -1 17 6 17 6 0 8 -4 5 -10
-3 -5 -1 -10 4 -10 22 0 10 18 -30 44 -28 19 -39 32 -35 43 6 13 4 14 -9 3
-13 -11 -13 -15 -3 -21 10 -7 9 -9 -3 -9 -27 0 -30 13 -7 37 12 13 18 23 14
23 -4 0 -18 -12 -31 -27 -13 -16 -25 -23 -25 -16 0 6 4 15 10 18 5 3 15 16 21
28 7 12 8 19 4 15 -4 -4 -22 0 -39 8 -28 14 -29 14 -12 -1 11 -8 23 -15 28
-15 4 0 8 -5 8 -11 0 -5 -4 -8 -10 -4 -5 3 -18 -3 -29 -14 -11 -11 -23 -16
-26 -11 -3 5 3 15 14 22 20 14 20 14 0 26 -11 7 -17 18 -13 24 5 7 3 8 -5 4
-9 -6 -8 -13 5 -27 9 -10 12 -19 6 -19 -6 0 -13 4 -17 10 -3 5 -13 6 -22 3
-10 -4 -14 -2 -9 5 3 6 1 14 -5 18 -16 9 -39 -23 -32 -43 5 -13 1 -12 -21 2
-14 10 -31 25 -35 34 -5 9 -13 12 -17 8 -5 -5 -4 -11 1 -15 6 -4 12 -16 13
-27 3 -16 -3 -14 -29 13 -30 31 -34 32 -45 17 -7 -9 -10 -24 -8 -33 3 -10 -5
-5 -18 11 -13 15 -29 27 -36 27 -8 0 -10 5 -6 12 4 7 3 8 -5 4 -14 -9 -5 -26
14 -26 7 0 16 -7 19 -16 8 -22 8 -26 -4 -19 -5 3 -18 1 -29 -5 -11 -5 -22 -6
-25 -1 -8 13 -61 8 -79 -7 -13 -11 -17 -10 -26 6 -6 11 -7 22 -3 26 3 4 -1 4
-10 1 -10 -4 -22 2 -32 17 -9 12 -16 17 -16 11 0 -6 11 -20 25 -31 32 -25 33
-39 1 -19 -22 15 -25 15 -30 0 -4 -9 -4 -18 -1 -21 3 -3 5 0 5 6 0 20 16 13
17 -7 1 -12 -4 -18 -13 -17 -23 4 -34 27 -23 49 6 10 8 23 5 30 -2 7 -5 4 -5
-6 -1 -10 -5 -15 -11 -12 -6 4 -7 -1 -3 -12 6 -15 4 -16 -9 -5 -13 10 -17 10
-21 -2 -4 -10 -1 -13 7 -10 7 3 14 -2 15 -11 1 -8 2 -23 3 -33 2 -15 10 -18
35 -17 18 1 29 -3 26 -8 -3 -6 -1 -7 6 -3 6 4 9 12 6 17 -3 5 1 6 10 3 14 -6
14 -8 -2 -20 -17 -13 -17 -14 1 -7 15 5 18 3 13 -10 -4 -11 -2 -14 9 -10 10 4
11 9 4 18 -7 8 -5 12 5 13 8 1 21 3 29 4 8 1 13 6 12 12 -2 6 -1 8 1 3 3 -4 9
-4 15 -1 6 4 5 10 -3 16 -11 8 -11 9 1 5 8 -2 15 -9 15 -15 0 -5 3 -14 8 -18
13 -13 8 21 -5 35 -11 11 -9 11 9 0 22 -13 25 -28 8 -42 -5 -4 0 -6 12 -4 11
2 28 9 37 16 9 7 16 10 16 6 0 -4 7 -2 15 5 9 7 15 8 15 2 0 -13 24 -10 44 7
9 7 17 11 17 7 1 -3 2 -10 3 -15 2 -18 16 -24 16 -8 0 10 4 17 8 17 13 0 11
-33 -4 -54 -7 -10 -10 -25 -7 -32 6 -17 -18 -19 -35 -2 -9 9 -16 7 -31 -6 -21
-19 -35 -8 -25 21 6 17 6 17 -11 1 -15 -14 -16 -20 -5 -32 8 -11 9 -16 1 -16
-6 0 -11 5 -11 10 0 6 -5 10 -11 10 -6 0 -20 10 -31 23 -11 12 -17 16 -15 7 2
-8 0 -23 -5 -33 -9 -17 -10 -17 -35 3 -27 21 -43 26 -43 12 0 -4 10 -12 22
-17 12 -6 23 -17 26 -25 2 -10 1 -11 -5 -4 -4 6 -18 17 -31 23 -14 8 -21 18
-18 27 7 19 -3 18 -37 -4 -15 -10 -24 -22 -20 -27 5 -4 -2 -1 -14 6 -14 8 -21
20 -18 29 3 11 -1 16 -15 16 -23 0 -25 -7 -8 -24 9 -9 9 -12 0 -12 -7 0 -12 5
-12 10 0 6 -10 2 -21 -9 -21 -19 -22 -19 -42 0 -22 20 -49 27 -29 7 7 -7 12
-16 12 -21 0 -5 -9 1 -21 14 -15 17 -19 19 -15 7 3 -10 1 -18 -4 -18 -6 0 -10
8 -10 18 0 9 -7 25 -14 35 -12 16 -14 16 -20 2 -3 -9 -10 -13 -16 -10 -5 3
-10 1 -10 -5 0 -6 10 -10 21 -8 22 3 31 -13 30 -54 0 -10 5 -17 12 -15 6 1 12
-8 13 -20 1 -12 -2 -20 -7 -17 -4 2 -6 11 -2 20 3 9 0 14 -8 12 -7 -2 -14 6
-15 18 -2 30 -12 44 -32 44 -15 0 -15 -2 -2 -11 12 -9 12 -10 -4 -5 -10 4 -25
1 -32 -5 -19 -15 -18 -1 1 17 19 20 19 31 0 31 -9 0 -14 -6 -11 -14 4 -10 1
-11 -14 -3 -25 13 -26 13 -27 -11 -1 -15 1 -18 10 -11 9 8 12 4 13 -14 1 -13
-2 -24 -8 -24 -5 0 -7 4 -3 9 3 5 -4 13 -15 16 -18 6 -19 9 -8 23 11 14 10 15
-5 9 -10 -4 -21 -7 -23 -7 -3 0 -3 -4 0 -9 3 -5 -2 -8 -11 -7 -10 0 -23 -11
-31 -27 -13 -27 -15 -27 -37 -13 -18 12 -25 12 -28 3 -3 -7 -6 -5 -6 6 -1 21
3 21 33 2 22 -15 24 -14 29 5 4 16 2 20 -9 16 -21 -8 -43 4 -37 20 4 10 0 12
-11 8 -9 -3 -13 -11 -9 -17 4 -6 1 -7 -7 -2 -10 6 -12 4 -6 -10 7 -18 6 -18
-14 0 -11 10 -23 16 -26 13 -3 -3 7 -15 22 -27 15 -12 25 -24 22 -26 -3 -3
-19 9 -36 26 -27 28 -32 30 -38 15 -6 -16 -8 -16 -27 1 -19 18 -19 17 -12 -6
6 -19 4 -23 -8 -18 -8 3 -24 -1 -36 -9 -12 -9 -21 -11 -21 -5 0 6 4 11 8 11 5
0 9 6 9 13 0 8 -12 14 -28 14 -18 0 -25 -5 -22 -14 3 -7 10 -10 17 -6 6 4 5
-1 -3 -10 -7 -9 -21 -16 -30 -16 -14 1 -14 2 1 6 17 4 14 33 -4 33 -5 0 -6 -4
-3 -10 3 -5 1 -10 -4 -10 -16 0 -13 18 4 27 12 7 11 11 -6 21 -16 10 -20 10
-18 0 1 -7 1 -22 0 -33 -1 -16 -3 -17 -11 -5 -6 9 -5 17 3 22 9 6 9 8 -1 8 -7
0 -11 4 -7 9 3 5 1 12 -4 16 -6 3 -8 -3 -6 -15 2 -11 -1 -20 -7 -20 -6 0 -6
-6 2 -15 7 -9 10 -18 6 -22 -3 -3 -6 -1 -6 5 0 6 -13 18 -30 27 -32 17 -55 20
-27 4 9 -5 17 -15 17 -22 0 -7 -4 -6 -10 3 -7 12 -10 12 -10 1 0 -7 -6 -11
-14 -8 -7 3 -23 -1 -34 -9 -19 -13 -21 -12 -27 6 -4 11 -11 17 -17 14 -7 -4
-8 -2 -4 4 4 7 3 12 -3 12 -20 0 -21 -19 0 -30 11 -7 18 -14 15 -18 -3 -3 -16
3 -29 14 -12 11 -31 26 -41 34 -18 14 -18 13 -13 -10 4 -14 4 -19 1 -12 -3 6
-10 12 -15 12 -6 0 -8 -4 -5 -9 10 -16 -23 -21 -38 -6 -16 17 -30 20 -21 6 3
-6 -3 -9 -12 -9 -10 0 -26 -3 -35 -6 -12 -6 -21 0 -32 21 -15 26 -15 27 -12 4
4 -33 33 -53 58 -40 11 6 22 8 26 5 3 -3 0 -6 -7 -6 -7 0 -9 -5 -6 -10 4 -6
10 -8 14 -5 5 2 16 -2 26 -9 14 -10 15 -15 5 -21 -8 -5 -11 -4 -7 2 4 6 0 13
-8 17 -8 3 -17 1 -19 -3 -9 -14 -51 -6 -48 8 2 9 -3 11 -13 7 -11 -4 -14 -2
-9 6 5 7 2 9 -9 5 -11 -4 -14 -2 -10 9 4 10 0 12 -11 8 -9 -3 -13 -11 -9 -18
3 -6 2 -7 -2 -3 -15 13 -14 36 0 31 9 -4 13 2 11 20 -2 14 2 24 8 23 6 -1 10
3 9 10 -2 8 4 10 15 6 14 -6 15 -4 5 9 -7 8 -9 18 -5 22 4 4 7 13 7 18 0 6 7
13 15 15 13 4 13 3 0 -6 -8 -6 -10 -11 -5 -11 6 0 16 5 23 12 8 8 12 8 12 1 0
-16 -25 -34 -36 -25 -4 4 -3 0 4 -9 6 -9 8 -20 4 -24 -4 -5 -1 -5 7 0 9 5 20
0 33 -16 12 -16 16 -18 12 -6 -5 15 -2 17 20 13 15 -3 24 -1 22 3 -3 4 9 7 27
6 18 -1 41 6 52 14 20 16 20 16 2 -6 -14 -16 -16 -26 -9 -39 6 -11 11 -13 16
-5 4 6 2 11 -3 11 -6 0 -11 5 -11 11 0 8 6 7 17 -2 12 -10 15 -10 9 -1 -4 7
-4 12 1 11 4 -1 15 -1 23 0 13 1 13 2 0 11 -9 6 -19 5 -29 -3 -12 -10 -12 -9
0 11 8 12 15 18 17 12 2 -6 8 -8 13 -4 5 3 9 0 9 -6 0 -7 6 -10 14 -7 7 3 19
0 26 -6 10 -9 11 -9 6 0 -3 6 -2 14 4 18 5 3 10 1 10 -4 0 -23 21 -9 37 24 12
24 19 31 25 23 4 -7 8 -8 8 -3 0 6 -4 17 -9 24 -6 9 -6 23 0 35 10 20 9 20 -5
3 -8 -11 -12 -26 -9 -35 5 -14 3 -14 -7 -5 -10 9 -16 9 -26 -2 -8 -7 -14 -17
-14 -21 0 -5 5 -3 12 4 14 14 28 16 28 4 0 -7 -43 -32 -55 -32 -2 0 -2 15 0
33 2 17 1 26 -2 19 -2 -6 -9 -10 -14 -7 -5 4 -6 -2 -3 -12 5 -12 -2 -9 -20 10
-30 31 -38 34 -30 12 4 -8 11 -15 17 -15 5 0 2 -9 -8 -20 -21 -23 -44 -28 -25
-6 16 20 0 49 -20 36 -13 -8 -12 -10 3 -10 22 0 22 -14 0 -31 -15 -12 -16 -12
-10 4 4 11 3 16 -3 12 -11 -7 -12 -6 -14 57 0 25 -4 49 -7 53 -4 3 -5 -15 -4
-40 2 -27 -1 -43 -7 -39 -5 3 -12 -3 -15 -15 -6 -24 -23 -29 -23 -7 0 8 -5 18
-11 22 -8 4 -9 -1 -5 -17 7 -23 7 -23 -8 -5 -9 11 -16 15 -16 10 0 -6 5 -15
12 -22 6 -6 9 -14 6 -17 -9 -10 -60 63 -53 75 3 6 10 8 15 5 4 -3 6 5 2 17 -5
21 -4 22 14 8 18 -14 18 -14 5 2 -11 15 -11 23 0 50 8 18 13 36 11 41 -1 4 2
7 8 7 5 0 10 6 10 13 1 6 9 30 20 52 11 22 19 44 20 48 0 5 6 23 14 40 8 18
40 100 71 182 31 83 61 159 65 170 36 82 233 650 245 705 2 8 4 15 5 15 1 0 3
7 5 15 5 22 11 44 39 145 14 49 23 91 21 93 -2 3 0 12 5 22 10 20 22 126 24
213 0 31 4 57 9 57 4 0 3 9 -3 20 -8 15 -8 20 1 20 8 0 8 4 1 13 -7 8 -7 18
-2 27 5 8 6 19 2 25 -3 5 -7 26 -7 45 0 19 -4 41 -8 48 -5 6 -5 12 -2 12 3 0
0 6 -6 13 -18 19 -52 19 -80 0z m952 -2127 c6 3 8 12 5 20 -4 11 0 11 19 -2
14 -9 25 -21 25 -27 0 -19 13 2 16 26 1 12 3 25 3 30 1 4 6 7 11 7 6 0 9 -6 8
-12 -2 -7 6 -13 16 -13 11 0 21 -5 23 -12 3 -7 -6 -10 -22 -9 -14 2 -28 -1
-32 -7 -4 -6 -1 -7 8 -2 11 6 11 5 3 -4 -6 -7 -20 -14 -30 -16 -11 -2 -21 -4
-24 -5 -14 -6 -36 -4 -46 2 -6 5 -17 2 -24 -7 -9 -10 -17 -12 -30 -5 -9 5 -20
6 -24 3 -4 -4 -12 -8 -19 -9 -7 -1 -21 -6 -31 -10 -13 -5 -17 -4 -13 3 4 6 -4
18 -16 26 -18 11 -28 12 -43 4 -25 -15 -44 -17 -44 -7 0 5 6 12 13 17 17 11
67 13 67 2 0 -4 9 -7 20 -6 11 1 20 4 20 8 0 4 15 7 33 6 22 -1 32 3 33 13 1
8 2 22 3 30 1 10 11 4 32 -18 17 -18 35 -30 40 -26z m167 -16 c-23 -31 -28
-35 -28 -22 0 9 38 52 46 52 2 0 -5 -13 -18 -30z m-440 -13 c7 -9 18 -15 23
-12 5 4 9 2 9 -4 0 -16 -24 -19 -47 -4 -14 10 -23 11 -28 4 -8 -14 -25 -14
-25 0 0 5 4 8 9 4 5 -3 12 -1 16 4 3 6 13 8 23 5 9 -3 6 2 -8 11 -21 13 -22
15 -5 13 11 -2 26 -11 33 -21z m-1178 -7 c0 -5 -7 -7 -15 -4 -8 4 -15 8 -15
10 0 2 7 4 15 4 8 0 15 -4 15 -10z m115 -11 c-4 -5 -8 -18 -10 -28 -3 -14 1
-18 12 -14 11 4 11 8 3 13 -8 5 -8 10 -2 14 5 3 13 -1 16 -10 3 -9 11 -12 18
-8 10 6 10 5 1 -7 -8 -9 -27 -15 -48 -14 -20 1 -38 -1 -40 -5 -6 -9 -36 -6
-58 6 -16 9 -17 12 -3 23 16 14 40 6 31 -10 -4 -5 -2 -9 4 -9 5 0 12 9 16 19
4 13 12 18 21 14 10 -4 17 2 21 16 3 11 9 18 14 15 5 -3 7 -10 4 -15z m983 -4
c-3 -3 -9 2 -12 12 -6 14 -5 15 5 6 7 -7 10 -15 7 -18z m552 19 c0 -8 -19 -13
-24 -6 -3 5 1 9 9 9 8 0 15 -2 15 -3z m90 -41 c0 -7 -39 17 -46 28 -3 6 5 3
20 -6 14 -10 26 -19 26 -22z m-1514 1 c-3 -8 0 -11 10 -7 7 3 14 1 14 -5 0
-11 -14 -10 -43 3 -14 6 -15 10 -6 21 13 16 33 8 25 -12z m68 -9 c-4 -8 -11
-12 -16 -9 -6 4 -5 10 3 15 19 12 19 11 13 -6z m-1284 -6 c0 -5 -4 -9 -8 -9
-11 0 -34 -51 -27 -58 3 -4 8 4 12 16 3 12 10 22 15 22 5 0 7 -4 3 -9 -3 -5
-1 -12 5 -16 6 -4 8 -10 5 -15 -3 -5 -1 -12 5 -15 6 -4 10 -3 9 2 -3 19 2 30
15 30 12 0 10 -7 -6 -30 l-21 -30 -19 23 c-11 13 -18 17 -18 9 0 -12 -2 -12
-9 0 -6 9 -11 10 -15 2 -4 -6 -11 -9 -16 -6 -12 8 -1 35 13 32 6 -1 12 12 13
28 1 17 2 30 3 30 14 5 41 1 41 -6z m75 -10 c11 -17 -1 -21 -15 -4 -8 9 -8 15
-2 15 6 0 14 -5 17 -11z m115 -16 c-11 -14 -17 -29 -14 -34 3 -5 -5 -7 -18 -5
-13 2 -29 -1 -35 -6 -7 -6 -13 -9 -14 -7 -7 35 -6 36 27 34 19 -2 31 1 28 6
-3 5 -10 7 -15 3 -6 -3 -5 3 2 14 7 11 23 20 35 20 l23 0 -19 -25z m245 7 c3
-5 1 -10 -4 -10 -6 0 -11 5 -11 10 0 6 2 10 4 10 3 0 8 -4 11 -10z m-35 -19
c7 -15 7 -19 -5 -17 -20 3 -28 13 -20 25 9 15 13 14 25 -8z m-160 -3 c0 15 31
12 42 -3 5 -6 8 -5 8 3 0 6 7 12 15 12 8 0 15 -5 15 -11 0 -5 -4 -8 -9 -4 -5
3 -12 1 -16 -5 -4 -7 -12 -7 -25 0 -15 8 -18 7 -14 -3 3 -8 -4 -13 -19 -13
-19 0 -23 4 -19 19 4 14 7 16 13 5 7 -10 9 -10 9 0z m2435 -40 c-2 -24 1 -48
6 -54 5 -7 3 -11 -5 -11 -9 0 -13 11 -11 34 2 27 -1 33 -14 28 -11 -3 -10 0 3
10 11 8 16 15 12 15 -4 0 -4 5 -1 10 10 17 12 12 10 -32z m-515 21 c0 -5 -4
-7 -10 -4 -5 3 -10 -1 -10 -9 0 -9 -5 -16 -10 -16 -7 0 -7 6 0 20 11 21 30 27
30 9z m111 -20 c-5 -13 -10 -19 -10 -12 -1 15 10 45 15 40 3 -2 0 -15 -5 -28z
m129 21 c0 -5 -4 -10 -10 -10 -5 0 -10 5 -10 10 0 6 5 10 10 10 6 0 10 -4 10
-10z m98 -11 c2 -8 0 -10 -5 -4 -10 12 -47 20 -40 8 3 -5 1 -15 -4 -23 -7 -11
-8 -8 -5 10 3 14 5 26 5 27 3 10 46 -7 49 -18z m222 17 c0 -2 -7 -6 -15 -10
-8 -3 -15 -1 -15 4 0 6 7 10 15 10 8 0 15 -2 15 -4z m-730 -21 c0 -8 -4 -15
-10 -15 -5 0 -7 7 -4 15 4 8 8 15 10 15 2 0 4 -7 4 -15z m64 -1 c3 -8 2 -12
-4 -9 -6 3 -10 10 -10 16 0 14 7 11 14 -7z m26 5 c0 -5 4 -7 10 -4 6 3 7 -1 4
-10 -4 -9 -7 -15 -8 -13 -1 2 -8 11 -15 21 -9 11 -10 17 -2 17 6 0 11 -5 11
-11z m225 1 c-3 -5 -1 -10 6 -10 7 0 10 -3 6 -6 -9 -9 -28 6 -22 17 4 5 8 9
11 9 3 0 2 -4 -1 -10z m-740 -10 c3 -5 1 -10 -4 -10 -6 0 -11 5 -11 10 0 6 2
10 4 10 3 0 8 -4 11 -10z m155 -20 c-27 -39 -34 -39 -12 0 9 16 21 30 25 30 5
0 -1 -13 -13 -30z m50 20 c0 -5 0 -13 0 -17 0 -5 -9 -9 -20 -9 -11 -1 -17 2
-14 7 2 4 12 5 22 2 15 -6 15 -5 3 10 -9 11 -10 17 -2 17 6 0 11 -4 11 -10z
m106 -2 c-12 -7 -21 -7 -28 0 -6 6 0 10 18 10 23 0 24 -2 10 -10z m78 -4 c9
-24 2 -26 -12 -4 -7 11 -8 20 -3 20 5 0 12 -7 15 -16z m65 -1 c-12 -15 -12
-16 4 -10 9 3 17 2 17 -3 0 -11 -23 -13 -33 -3 -7 6 10 33 20 33 3 0 -1 -8 -8
-17z m171 7 c0 -5 -2 -10 -4 -10 -3 0 -8 5 -11 10 -3 6 -1 10 4 10 6 0 11 -4
11 -10z m184 2 c3 -5 -1 -9 -9 -9 -8 0 -15 4 -15 9 0 4 4 8 9 8 6 0 12 -4 15
-8z m56 -2 c0 -5 -2 -10 -4 -10 -3 0 -8 5 -11 10 -3 6 -1 10 4 10 6 0 11 -4
11 -10z m100 -5 c11 -13 10 -14 -5 -9 -14 6 -16 4 -10 -6 5 -8 4 -11 -3 -6 -6
4 -9 13 -5 21 7 19 8 19 23 0z m193 -2 c-5 -12 -3 -14 7 -8 9 5 11 4 6 -4 -4
-6 -12 -9 -17 -6 -12 8 -12 35 1 35 5 0 6 -7 3 -17z m-1589 -2 c3 -5 -1 -11
-9 -14 -9 -4 -12 -1 -8 9 6 16 10 17 17 5z m181 -1 c3 -5 1 -10 -4 -10 -6 0
-11 5 -11 10 0 6 2 10 4 10 3 0 8 -4 11 -10z m1306 -13 c-10 -9 -11 -8 -5 6 3
10 9 15 12 12 3 -3 0 -11 -7 -18z m172 8 c-3 -9 -8 -14 -10 -11 -3 3 -2 9 2
15 9 16 15 13 8 -4z m-1258 -5 c-3 -5 -14 -10 -23 -10 -15 0 -15 2 -2 10 20
13 33 13 25 0z m305 0 c0 -5 -4 -10 -10 -10 -5 0 -10 5 -10 10 0 6 5 10 10 10
6 0 10 -4 10 -10z m275 0 c3 -5 1 -10 -4 -10 -6 0 -11 5 -11 10 0 6 2 10 4 10
3 0 8 -4 11 -10z m42 -4 c0 -8 -6 -12 -15 -9 -11 5 -11 7 0 14 7 5 13 9 14 9
0 0 1 -6 1 -14z m237 2 c-5 -8 -1 -9 12 -4 14 5 16 4 7 -5 -13 -13 -37 -3 -28
12 4 5 8 9 11 9 3 0 2 -5 -2 -12z m80 -4 c3 -8 2 -12 -4 -9 -6 3 -10 10 -10
16 0 14 7 11 14 -7z m-1394 -14 c6 0 8 5 5 10 -3 6 -1 10 5 10 16 0 6 -24 -11
-28 -8 -1 -23 5 -34 13 -20 16 -19 16 2 6 12 -6 27 -11 33 -11z m207 14 c-3
-3 -12 -4 -19 -1 -8 3 -5 6 6 6 11 1 17 -2 13 -5z m107 -29 c19 0 31 -31 16
-40 -5 -3 -7 4 -5 15 3 17 0 20 -18 18 -17 -2 -22 2 -24 22 -2 21 -1 22 5 5 4
-11 16 -20 26 -20z m100 20 c3 -8 1 -15 -4 -15 -6 0 -10 7 -10 15 0 8 2 15 4
15 2 0 6 -7 10 -15z m56 0 c-7 -8 -17 -15 -23 -15 -6 0 -2 7 9 15 25 19 30 19
14 0z m46 -5 c5 1 10 -4 12 -12 3 -11 2 -11 -6 0 -5 8 -13 13 -18 12 -5 -1
-10 4 -12 12 -3 11 -2 11 6 0 5 -8 13 -13 18 -12z m475 6 c5 3 9 0 9 -6 0 -15
-23 -7 -26 8 -1 7 0 8 3 2 2 -5 9 -8 14 -4z m101 -18 c-8 -8 -9 -4 -5 13 4 13
8 18 11 10 2 -7 -1 -18 -6 -23z m421 19 c4 3 7 1 7 -5 0 -6 -8 -10 -18 -9 -10
0 -19 7 -19 14 0 9 4 10 12 3 7 -5 15 -7 18 -3z m209 -10 c-7 -8 -9 -17 -5
-20 3 -4 1 -7 -5 -7 -7 0 -12 2 -12 5 0 10 24 44 29 40 2 -3 -1 -11 -7 -18z
m-2305 6 c-4 -3 -2 -12 5 -20 8 -11 8 -17 -2 -26 -10 -9 -14 -9 -17 2 -4 10
-7 10 -13 1 -5 -7 -7 -2 -7 13 l0 26 18 -22 c10 -12 18 -17 19 -10 0 6 -4 15
-10 18 -14 8 -13 25 2 25 6 0 8 -3 5 -7z m651 0 c-10 -2 -18 -9 -18 -15 0 -6
-3 -9 -6 -5 -10 10 6 27 24 26 15 -1 15 -2 0 -6z m79 -15 c-3 -8 -6 -5 -6 6
-1 11 2 17 5 13 3 -3 4 -12 1 -19z m88 12 c-27 -12 -43 -12 -25 0 8 5 22 9 30
9 10 0 8 -3 -5 -9z m120 0 c3 -5 1 -10 -4 -10 -6 0 -11 5 -11 10 0 6 2 10 4
10 3 0 8 -4 11 -10z m215 0 c-8 -5 -19 -10 -25 -10 -5 0 -3 5 5 10 8 5 20 10
25 10 6 0 3 -5 -5 -10z m160 2 c0 -5 -7 -9 -15 -9 -8 0 -15 4 -15 9 0 4 7 8
15 8 8 0 15 -4 15 -8z m67 2 c-3 -3 -12 -4 -19 -1 -8 3 -5 6 6 6 11 1 17 -2
13 -5z m129 -6 c5 -7 3 -8 -6 -3 -9 6 -12 4 -8 -7 4 -8 0 -15 -7 -15 -10 0
-11 5 -4 19 11 21 15 22 25 6z m290 0 c4 -7 4 -10 -1 -6 -4 4 -15 2 -24 -5
-14 -11 -14 -10 -2 6 16 20 18 21 27 5z m55 -5 c13 -16 12 -17 -3 -4 -14 11
-18 11 -18 1 0 -8 -3 -11 -6 -7 -5 5 3 27 10 27 2 0 10 -8 17 -17z m90 4 c-6
-8 -9 -16 -6 -19 3 -2 -2 -5 -10 -5 -13 0 -13 3 2 19 19 21 31 25 14 5z m329
5 c0 -5 -7 -9 -15 -9 -8 0 -15 4 -15 9 0 4 7 8 15 8 8 0 15 -4 15 -8z m-1570
-12 c0 -5 -2 -10 -4 -10 -3 0 -8 5 -11 10 -3 6 -1 10 4 10 6 0 11 -4 11 -10z
m80 -25 c0 -5 -5 -3 -10 5 -5 8 -10 20 -10 25 0 6 5 3 10 -5 5 -8 10 -19 10
-25z m396 26 c-4 -5 -2 -11 3 -13 5 -1 -1 -11 -13 -20 -18 -13 -23 -13 -23 -3
0 8 4 12 8 9 4 -2 10 0 14 6 3 5 0 10 -7 10 -9 0 -9 3 2 10 19 12 23 12 16 1z
m94 -7 c0 -2 -7 -4 -15 -4 -8 0 -15 4 -15 10 0 5 7 7 15 4 8 -4 15 -8 15 -10z
m-1320 -3 c0 -5 -7 -12 -16 -15 -14 -5 -15 -4 -4 9 14 17 20 19 20 6z m484 0
c3 -4 0 -13 -6 -21 -8 -12 -9 -12 -5 2 4 12 0 16 -14 15 -12 -1 -19 -9 -20
-22 0 -11 -3 -14 -6 -7 -3 7 -3 18 0 25 5 14 44 20 51 8z m190 -18 c11 -13 16
-23 13 -23 -10 0 -37 31 -37 42 0 6 1 9 3 7 1 -2 11 -14 21 -26z m49 20 c3 -5
0 -17 -4 -28 -8 -18 -9 -18 -5 3 3 17 1 22 -10 18 -8 -3 -14 -1 -14 4 0 12 27
13 33 3z m667 -2 c0 -5 -8 -15 -17 -22 -16 -12 -17 -12 -6 2 7 9 10 19 6 22
-3 4 -1 7 5 7 7 0 12 -4 12 -9z m322 -15 c4 3 9 1 12 -4 3 -6 -1 -9 -10 -8 -9
1 -21 11 -26 22 -9 18 -8 18 5 2 8 -10 16 -15 19 -12z m79 11 c-6 -8 -7 -18
-3 -22 4 -5 1 -5 -6 -1 -10 6 -10 11 -1 22 6 8 14 14 16 14 3 0 0 -6 -6 -13z
m159 7 c0 -8 -19 -13 -24 -6 -3 5 1 9 9 9 8 0 15 -2 15 -3z m-2223 -17 c4 -8
16 -17 26 -20 10 -4 15 -11 12 -17 -3 -5 0 -10 8 -10 8 0 17 -7 21 -15 5 -13
2 -13 -19 1 -14 9 -23 20 -20 24 3 4 -7 11 -20 14 -14 4 -23 11 -20 16 10 16
-11 11 -25 -5 -10 -12 -10 -15 4 -15 9 0 16 -5 16 -10 0 -7 -6 -7 -20 0 -17 9
-18 14 -7 30 14 23 33 26 44 7z m1182 0 c8 -10 7 -14 -2 -14 -8 0 -14 6 -14
14 0 7 1 13 2 13 2 0 8 -6 14 -13z m119 -1 c-7 -8 -15 -12 -17 -11 -5 6 10 25
20 25 5 0 4 -6 -3 -14z m237 5 c3 -5 2 -12 -3 -15 -5 -3 -9 1 -9 9 0 17 3 19
12 6z m582 -6 c0 -8 -4 -12 -9 -9 -5 3 -6 10 -3 15 9 13 12 11 12 -6z m284 -2
c13 -16 12 -17 -3 -4 -10 7 -18 15 -18 17 0 8 8 3 21 -13z m263 1 c3 -8 2 -12
-4 -9 -6 3 -10 10 -10 16 0 14 7 11 14 -7z m-1878 -6 c5 -7 3 -8 -6 -3 -9 6
-12 4 -8 -7 4 -8 0 -15 -7 -15 -10 0 -11 5 -4 19 11 21 15 22 25 6z m129 2 c4
-6 -1 -7 -11 -3 -13 5 -15 3 -9 -7 5 -9 4 -11 -4 -6 -6 4 -9 12 -6 17 8 12 22
12 30 -1z m145 -2 c0 -11 -12 -10 -30 2 -12 7 -10 9 8 7 12 0 22 -5 22 -9z
m789 -2 c9 -11 9 -16 -1 -22 -7 -4 -10 -4 -6 1 4 4 3 14 -3 22 -6 7 -9 13 -6
13 2 0 10 -6 16 -14z m506 5 c-9 -8 -36 -10 -30 -2 2 4 11 8 20 8 8 0 13 -3
10 -6z m82 -11 c-1 -21 -10 -18 -13 5 -1 8 2 15 6 15 5 0 8 -9 7 -20z m-2626
-17 c-12 -20 -14 -14 -5 12 4 9 9 14 11 11 3 -2 0 -13 -6 -23z m44 9 c-3 -3
-11 0 -18 7 -9 10 -8 11 6 5 10 -3 15 -9 12 -12z m1499 9 c4 -5 -3 -7 -14 -4
-23 6 -26 13 -6 13 8 0 17 -4 20 -9z m266 5 c0 -2 -8 -10 -17 -17 -16 -13 -17
-12 -4 4 13 16 21 21 21 13z m81 -13 c13 -16 12 -17 -3 -4 -10 7 -18 15 -18
17 0 8 8 3 21 -13z m-1535 -21 c-17 -16 -18 -16 -5 5 7 12 15 20 18 17 3 -2
-3 -12 -13 -22z m107 21 c3 -5 0 -17 -4 -28 -9 -18 -9 -18 -5 3 3 16 -1 22
-14 22 -13 0 -17 -6 -14 -22 4 -21 4 -21 -5 -3 -11 25 -5 35 19 35 10 0 21 -3
23 -7z m71 -1 c2 -4 -5 -9 -17 -9 -17 -2 -19 0 -7 7 18 12 18 12 24 2z m390
-8 c3 -8 2 -12 -4 -9 -6 3 -10 10 -10 16 0 14 7 11 14 -7z m136 -9 c-11 -13
-34 -15 -45 -3 -3 3 5 5 17 4 14 -1 22 4 20 12 -1 8 2 11 8 7 8 -5 8 -11 0
-20z m155 15 c-3 -5 -12 -10 -18 -10 -7 0 -6 4 3 10 19 12 23 12 15 0z m1026
-7 c13 -16 12 -17 -3 -4 -10 7 -18 15 -18 17 0 8 8 3 21 -13z m600 0 c13 -16
12 -17 -3 -4 -10 7 -18 15 -18 17 0 8 8 3 21 -13z m-3051 -3 c0 -5 -2 -10 -4
-10 -3 0 -8 5 -11 10 -3 6 -1 10 4 10 6 0 11 -4 11 -10z m33 3 c-7 -2 -13 -12
-13 -20 0 -9 -3 -14 -6 -10 -10 10 4 37 18 36 10 0 10 -2 1 -6z m1044 -6 c0
-7 -9 -14 -20 -14 -19 -2 -19 -2 -1 12 11 8 19 15 20 15 0 0 1 -6 1 -13z m533
-2 c0 -2 -6 -5 -13 -8 -8 -3 -14 1 -14 8 0 7 6 11 14 8 7 -3 13 -6 13 -8z m75
-5 c10 -11 16 -20 13 -20 -3 0 -13 9 -23 20 -10 11 -16 20 -13 20 3 0 13 -9
23 -20z m896 3 c13 -16 12 -17 -3 -4 -10 7 -18 15 -18 17 0 8 8 3 21 -13z
m-2523 -7 c-7 -8 -15 -12 -17 -11 -5 6 10 25 20 25 5 0 4 -6 -3 -14z m182 4
c0 -5 -4 -10 -10 -10 -5 0 -10 5 -10 10 0 6 5 10 10 10 6 0 10 -4 10 -10z
m375 0 c3 -6 -1 -7 -9 -4 -18 7 -21 14 -7 14 6 0 13 -4 16 -10z m700 -8 c-3
-3 -11 0 -18 7 -9 10 -8 11 6 5 10 -3 15 -9 12 -12z m439 10 c3 -5 -1 -9 -9
-9 -8 0 -12 4 -9 9 3 4 7 8 9 8 2 0 6 -4 9 -8z m1046 -2 c0 -5 -5 -10 -11 -10
-5 0 -7 5 -4 10 3 6 8 10 11 10 2 0 4 -4 4 -10z m220 6 c0 -3 -4 -8 -10 -11
-5 -3 -10 -1 -10 4 0 6 5 11 10 11 6 0 10 -2 10 -4z m-2880 -27 c0 -6 -4 -7
-10 -4 -5 3 -10 11 -10 16 0 6 5 7 10 4 6 -3 10 -11 10 -16z m396 12 c-4 -5 0
-11 6 -14 7 -3 3 -4 -8 -4 -21 1 -23 27 -2 27 5 0 7 -4 4 -9z m1819 0 c3 -5 2
-12 -3 -15 -5 -3 -9 1 -9 9 0 17 3 19 12 6z m-2165 -21 c-12 -22 -25 -26 -35
-10 -3 5 0 7 8 4 8 -3 17 2 20 10 4 9 9 16 12 16 3 0 1 -9 -5 -20z m180 16 c0
-2 -7 -7 -16 -10 -8 -3 -12 -2 -9 4 6 10 25 14 25 6z m47 -18 c2 -18 0 -20 -7
-8 -12 18 -13 30 -2 30 4 0 9 -10 9 -22z m279 -2 c1 -8 -5 -13 -15 -11 -9 1
-23 -2 -31 -8 -13 -9 -13 -9 -2 3 7 8 18 15 25 15 7 1 11 7 9 15 -2 8 0 11 4
7 4 -4 9 -14 10 -21z m444 10 c-7 -7 -13 -7 -20 0 -6 6 -3 10 10 10 13 0 16
-4 10 -10z m365 4 c-3 -5 -12 -10 -18 -10 -7 0 -6 4 3 10 19 12 23 12 15 0z
m610 0 c3 -5 1 -10 -4 -10 -6 0 -11 5 -11 10 0 6 2 10 4 10 3 0 8 -4 11 -10z
m45 6 c0 -3 -4 -8 -10 -11 -5 -3 -10 -1 -10 4 0 6 5 11 10 11 6 0 10 -2 10 -4z
m300 -1 c0 -7 -30 -13 -34 -7 -3 4 4 9 15 9 10 1 19 0 19 -2z m-2159 -22 c13
-16 12 -17 -3 -4 -17 13 -22 21 -14 21 2 0 10 -8 17 -17z m197 -8 c-3 -3 -9 2
-12 12 -6 14 -5 15 5 6 7 -7 10 -15 7 -18z m105 11 c11 1 16 0 13 -3 -3 -4 0
-13 6 -22 10 -12 7 -12 -8 2 -11 9 -23 15 -26 12 -3 -3 -11 3 -19 12 -12 16
-12 17 1 7 8 -6 23 -10 33 -8z m594 -1 c0 -8 -4 -12 -9 -9 -5 3 -6 10 -3 15 9
13 12 11 12 -6z m-1247 -5 c8 -5 11 -10 5 -10 -5 0 -17 5 -25 10 -8 5 -10 10
-5 10 6 0 17 -5 25 -10z m90 2 c0 -4 -9 -8 -20 -9 -11 -1 -20 2 -20 5 0 4 9 8
20 9 11 1 20 -2 20 -5z m40 -2 c0 -5 -4 -10 -10 -10 -5 0 -10 5 -10 10 0 6 5
10 10 10 6 0 10 -4 10 -10z m974 -6 c3 -8 2 -12 -4 -9 -6 3 -10 10 -10 16 0
14 7 11 14 -7z m862 -10 c1 -9 0 -13 -4 -10 -3 4 -7 14 -8 22 -1 9 0 13 4 10
3 -4 7 -14 8 -22z m-1575 -1 c13 -16 12 -17 -3 -4 -17 13 -22 21 -14 21 2 0
10 -8 17 -17z m1294 8 c3 -5 2 -12 -3 -15 -5 -3 -9 1 -9 9 0 17 3 19 12 6z
m-1700 -11 c3 -5 1 -10 -4 -10 -6 0 -11 5 -11 10 0 6 2 10 4 10 3 0 8 -4 11
-10z m45 0 c-13 -8 -8 -14 11 -12 3 1 6 -5 6 -13 0 -10 -5 -10 -23 3 -21 16
-16 32 11 32 6 0 3 -5 -5 -10z m295 -8 c-3 -3 -11 0 -18 7 -9 10 -8 11 6 5 10
-3 15 -9 12 -12z m185 14 c0 -2 -7 -7 -16 -10 -8 -3 -12 -2 -9 4 6 10 25 14
25 6z m31 -13 c13 -16 12 -17 -3 -4 -10 7 -18 15 -18 17 0 8 8 3 21 -13z m869
7 c0 -5 -5 -10 -11 -10 -5 0 -7 5 -4 10 3 6 8 10 11 10 2 0 4 -4 4 -10z m40 0
c0 -5 -5 -10 -11 -10 -5 0 -7 5 -4 10 3 6 8 10 11 10 2 0 4 -4 4 -10z m40 6
c0 -3 -4 -8 -10 -11 -5 -3 -10 -1 -10 4 0 6 5 11 10 11 6 0 10 -2 10 -4z m234
-4 c3 -5 -1 -9 -9 -9 -8 0 -12 4 -9 9 3 4 7 8 9 8 2 0 6 -4 9 -8z m83 -14 c2
-17 0 -19 -7 -8 -5 8 -6 18 -4 22 8 12 10 10 11 -14z m340 7 c0 -8 -4 -12 -9
-9 -5 3 -6 10 -3 15 9 13 12 11 12 -6z m-1776 -12 c13 -16 12 -17 -3 -4 -17
13 -22 21 -14 21 2 0 10 -8 17 -17z m460 0 c13 -16 12 -17 -3 -4 -17 13 -22
21 -14 21 2 0 10 -8 17 -17z m-873 -18 c-3 -3 -9 2 -12 12 -6 14 -5 15 5 6 7
-7 10 -15 7 -18z m332 19 c0 -8 -19 -13 -24 -6 -3 5 1 9 9 9 8 0 15 -2 15 -3z
m360 -4 c0 -5 -2 -10 -4 -10 -3 0 -8 5 -11 10 -3 6 -1 10 4 10 6 0 11 -4 11
-10z m420 0 c0 -5 -2 -10 -4 -10 -3 0 -8 5 -11 10 -3 6 -1 10 4 10 6 0 11 -4
11 -10z m2124 2 c3 -5 -1 -9 -9 -9 -8 0 -12 4 -9 9 3 4 7 8 9 8 2 0 6 -4 9 -8z
m-3211 -17 c-3 -9 -8 -14 -10 -11 -3 3 -2 9 2 15 9 16 15 13 8 -4z m125 -10
c-3 -3 -9 2 -12 12 -6 14 -5 15 5 6 7 -7 10 -15 7 -18z m622 11 c0 -3 -4 -8
-10 -11 -5 -3 -10 -1 -10 4 0 6 5 11 10 11 6 0 10 -2 10 -4z m316 -8 c3 -4 -1
-5 -10 -4 -8 1 -18 5 -22 8 -3 4 1 5 10 4 8 -1 18 -5 22 -8z m77 -13 c-7 -21
-12 -19 -10 4 0 11 5 18 9 15 4 -3 5 -11 1 -19z m-1032 -2 c13 -16 12 -17 -3
-4 -10 7 -18 15 -18 17 0 8 8 3 21 -13z m259 13 c0 -2 -8 -10 -17 -17 -16 -13
-17 -12 -4 4 13 16 21 21 21 13z m-386 -23 c4 -11 1 -11 -14 -3 -24 13 -25 17
-5 17 8 0 16 -6 19 -14z m63 10 c-4 -3 -1 -13 6 -22 11 -14 10 -14 -5 -2 -16
12 -16 31 -1 31 4 0 3 -3 0 -7z m40 -18 c0 -8 -4 -12 -9 -9 -5 3 -6 10 -3 15
9 13 12 11 12 -6z m-122 -13 c-3 -3 -11 0 -18 7 -9 10 -8 11 6 5 10 -3 15 -9
12 -12z m225 14 c0 -3 -4 -8 -10 -11 -5 -3 -10 -1 -10 4 0 6 5 11 10 11 6 0
10 -2 10 -4z m454 -12 c3 -8 2 -12 -4 -9 -6 3 -10 10 -10 16 0 14 7 11 14 -7z
m-613 -11 c13 -16 12 -17 -3 -4 -17 13 -22 21 -14 21 2 0 10 -8 17 -17z m1384
-2 c-9 -8 -36 -10 -30 -2 2 4 11 8 20 8 8 0 13 -3 10 -6z m-1207 -26 c-3 -3
-9 2 -12 12 -6 14 -5 15 5 6 7 -7 10 -15 7 -18z m-153 5 c-3 -5 -12 -10 -18
-10 -7 0 -6 4 3 10 19 12 23 12 15 0z m95 0 c0 -5 -2 -10 -4 -10 -3 0 -8 5
-11 10 -3 6 -1 10 4 10 6 0 11 -4 11 -10z m240 -345 c11 -13 10 -14 -4 -9 -9
3 -16 10 -16 15 0 13 6 11 20 -6z m3090 1 c0 -3 -4 -8 -10 -11 -5 -3 -10 -1
-10 4 0 6 5 11 10 11 6 0 10 -2 10 -4z m-2705 -336 c3 -5 1 -10 -4 -10 -6 0
-11 5 -11 10 0 6 2 10 4 10 3 0 8 -4 11 -10z m495 -874 c-1 -5 4 -13 12 -18
10 -8 10 -9 -2 -5 -8 2 -14 10 -12 17 2 8 -3 10 -13 7 -8 -4 -15 -2 -15 4 0 6
7 9 16 7 8 -2 14 -7 14 -12z m8 -32 c18 -8 32 -20 32 -25 0 -6 7 -17 15 -26 8
-8 13 -19 10 -24 -4 -5 2 -9 11 -9 13 0 15 -3 7 -11 -14 -14 -36 -2 -29 17 3
7 2 15 -2 18 -4 3 -8 -4 -9 -15 -2 -18 31 -49 52 -49 5 0 3 5 -5 10 -8 5 -10
10 -4 10 19 0 24 -13 11 -28 -10 -13 -9 -14 1 -8 8 5 21 1 33 -10 23 -20 26
-46 4 -38 -8 4 -15 2 -15 -4 0 -5 12 -9 27 -8 22 1 28 -3 28 -19 -1 -11 -7
-19 -14 -17 -7 1 -10 -1 -7 -6 7 -12 -91 -170 -144 -231 -53 -62 -75 -65 -90
-12 -11 41 -18 151 -10 151 3 0 5 17 6 37 1 70 9 123 17 123 5 0 6 4 3 9 -7
11 29 181 38 181 2 0 17 -7 34 -16z"/>
<path d="M6793 5064 c21 -25 23 -41 3 -25 -8 7 -17 8 -20 3 -3 -6 0 -15 8 -21
10 -9 16 -7 26 4 11 14 10 20 -10 38 -22 20 -22 20 -7 1z"/>
<path d="M6856 5042 c-4 -7 -12 -9 -18 -6 -6 4 -8 3 -5 -3 7 -11 43 -10 54 2
5 4 3 5 -4 2 -6 -4 -13 -2 -15 5 -3 9 -6 9 -12 0z"/>
<path d="M6714 5029 c-3 -5 -10 -6 -16 -3 -6 4 -8 3 -5 -3 8 -12 56 -11 60 1
3 12 -32 16 -39 5z"/>
<path d="M5410 4961 c0 -6 4 -13 10 -16 6 -3 7 1 4 9 -7 18 -14 21 -14 7z"/>
<path d="M5456 4953 c-6 -14 -5 -15 5 -6 7 7 10 15 7 18 -3 3 -9 -2 -12 -12z"/>
<path d="M5360 2986 c0 -2 7 -7 16 -10 8 -3 12 -2 9 4 -6 10 -25 14 -25 6z"/>
<path d="M5406 2955 c4 -8 10 -15 15 -15 4 0 6 7 3 15 -4 8 -10 15 -15 15 -4
0 -6 -7 -3 -15z"/>
<path d="M5393 2913 c0 -9 4 -10 14 -2 7 6 13 12 13 14 0 1 -6 2 -13 2 -8 0
-14 -6 -14 -14z"/>
<path d="M5456 2857 c3 -10 9 -15 12 -12 3 3 0 11 -7 18 -10 9 -11 8 -5 -6z"/>
<path d="M5505 2841 c3 -5 1 -12 -5 -16 -5 -3 -10 -1 -10 6 0 7 -3 10 -6 6
-12 -12 7 -28 20 -18 7 6 17 7 22 3 4 -4 2 1 -5 11 -14 18 -26 24 -16 8z"/>
<path d="M2770 7010 c-40 -11 -123 -52 -151 -74 -14 -12 -43 -34 -65 -51 -55
-41 -278 -265 -353 -355 -35 -41 -73 -86 -84 -100 -12 -14 -48 -56 -80 -95
-32 -38 -68 -81 -80 -95 -61 -71 -162 -211 -184 -255 -52 -101 -66 -204 -36
-257 23 -41 71 -86 101 -94 12 -3 22 -11 22 -17 0 -6 3 -8 6 -4 3 3 17 1 31
-4 31 -11 144 -28 233 -35 71 -5 156 -27 181 -47 54 -42 41 -177 -26 -265 -43
-56 -77 -82 -128 -97 -47 -14 -59 -8 -77 40 -22 57 -11 116 41 230 36 78 36
78 -31 77 -40 -1 -147 -41 -214 -81 -73 -43 -157 -124 -179 -171 -20 -41 -28
-98 -16 -106 5 -3 9 -14 9 -24 0 -45 107 -118 205 -140 99 -21 277 -29 350
-15 149 29 250 86 373 211 46 46 80 84 77 84 -4 0 1 8 11 18 24 23 92 129 100
155 4 12 10 24 14 27 9 6 56 141 70 205 29 124 4 290 -45 309 -9 3 -14 10 -11
15 3 5 -1 12 -10 15 -10 4 -13 2 -9 -7 4 -6 1 -5 -7 3 -7 9 -28 15 -45 15 -18
0 -33 2 -33 5 0 6 -64 5 -76 -2 -5 -2 -19 -3 -31 -2 -13 0 -23 -1 -23 -5 0 -3
-18 -6 -40 -5 -22 0 -40 -2 -40 -6 0 -4 -10 -6 -22 -5 -13 1 -27 0 -33 -3 -11
-7 -43 -11 -114 -16 -45 -2 -57 1 -78 20 -24 22 -25 28 -20 96 6 90 45 214
105 333 51 103 108 195 120 195 23 0 46 -78 48 -162 1 -49 -1 -88 -5 -88 -3 0
-6 -17 -6 -37 -1 -40 -12 -119 -19 -131 -2 -4 -6 -30 -10 -59 -5 -45 -3 -52
13 -58 10 -3 30 -1 45 4 14 6 26 8 26 5 0 -13 88 58 120 97 19 23 43 50 53 60
9 11 17 25 17 33 0 7 6 19 14 25 12 10 77 132 81 151 1 3 8 21 17 40 8 19 20
53 27 75 7 22 15 47 18 55 3 8 7 22 8 30 23 146 24 161 10 225 -6 28 -10 56
-8 62 3 7 -5 17 -17 23 -11 6 -18 15 -15 20 10 15 -78 23 -125 10z"/>
<path d="M7711 6589 c-21 -9 -42 -26 -45 -37 -4 -11 -13 -23 -21 -26 -8 -3
-12 -12 -9 -19 3 -8 -2 -17 -10 -20 -9 -4 -13 -13 -10 -22 3 -8 1 -15 -5 -15
-6 0 -10 -3 -10 -7 1 -5 0 -10 -1 -13 -2 -6 -7 -25 -14 -57 -2 -12 -10 -31
-16 -43 -7 -12 -10 -31 -7 -41 3 -11 -2 -23 -11 -29 -10 -5 -14 -10 -10 -10 4
0 2 -15 -4 -32 -5 -18 -11 -44 -13 -58 -2 -14 -4 -26 -5 -27 -3 -4 -5 -12 -14
-66 -4 -27 -9 -59 -12 -70 -2 -12 -7 -47 -10 -77 -3 -30 -8 -82 -12 -115 -12
-121 -4 -375 12 -375 5 0 7 -3 4 -6 -11 -10 22 -88 50 -119 37 -41 69 -56 127
-59 64 -4 119 13 183 54 56 37 87 84 96 146 11 72 18 128 19 157 1 15 4 27 7
27 3 0 6 24 6 53 4 153 24 331 43 364 5 11 7 23 4 27 -3 3 1 6 10 6 27 0 47
-86 53 -230 4 -120 20 -159 65 -160 19 0 68 44 93 84 17 27 69 166 61 166 -2
0 2 19 9 43 17 59 13 210 -8 281 -33 113 -131 161 -203 101 -32 -26 -39 -30
-52 -30 -8 0 -19 18 -26 40 -23 77 -65 135 -132 183 -71 49 -122 58 -182 31z"/>
<path d="M6693 5175 c0 -8 4 -12 9 -9 5 3 6 10 3 15 -9 13 -12 11 -12 -6z"/>
<path d="M6773 5175 c0 -8 4 -12 9 -9 5 3 6 10 3 15 -9 13 -12 11 -12 -6z"/>
<path d="M6815 5180 c-3 -5 -1 -10 4 -10 6 0 11 5 11 10 0 6 -2 10 -4 10 -3 0
-8 -4 -11 -10z"/>
<path d="M6893 5169 c-2 -23 3 -25 10 -4 4 8 3 16 -1 19 -4 3 -9 -4 -9 -15z"/>
<path d="M6456 5153 c-6 -14 -5 -15 5 -6 7 7 10 15 7 18 -3 3 -9 -2 -12 -12z"/>
<path d="M6490 5159 c0 -5 5 -7 10 -4 6 3 10 8 10 11 0 2 -4 4 -10 4 -5 0 -10
-5 -10 -11z"/>
<path d="M6594 5145 c0 -13 3 -22 7 -19 8 4 6 30 -2 38 -3 3 -5 -5 -5 -19z"/>
<path d="M6634 5158 c-4 -7 -4 -10 1 -6 4 4 15 2 24 -5 14 -11 14 -10 2 6 -16
20 -18 21 -27 5z"/>
<path d="M6556 5147 c3 -10 9 -15 12 -12 3 3 0 11 -7 18 -10 9 -11 8 -5 -6z"/>
<path d="M6914 5151 c4 -5 0 -11 -6 -14 -7 -3 -3 -4 9 -4 17 1 19 4 11 14 -12
15 -22 18 -14 4z"/>
<path d="M5899 5148 c-5 -16 -4 -46 2 -42 4 2 7 13 6 24 -1 17 -5 26 -8 18z"/>
<path d="M6279 5148 c-7 -23 -4 -35 7 -35 9 0 11 4 4 12 -5 7 -7 15 -3 18 3 4
3 7 0 7 -4 0 -7 -1 -8 -2z"/>
<path d="M6353 5135 c0 -8 4 -12 9 -9 5 3 6 10 3 15 -9 13 -12 11 -12 -6z"/>
<path d="M6717 5128 c9 -10 17 -18 17 -18 1 0 2 8 2 18 0 10 -8 18 -18 18 -16
0 -16 -2 -1 -18z"/>
<path d="M6825 5140 c-3 -6 1 -7 9 -4 18 7 21 14 7 14 -6 0 -13 -4 -16 -10z"/>
<path d="M6867 5135 c3 -8 9 -12 14 -9 12 7 11 11 -5 17 -10 4 -13 1 -9 -8z"/>
<path d="M6980 5145 c0 -2 6 -8 13 -14 10 -8 14 -7 14 2 0 8 -6 14 -14 14 -7
0 -13 -1 -13 -2z"/>
<path d="M6500 5131 c0 -7 -5 -9 -12 -5 -7 5 -8 3 -3 -5 5 -9 10 -10 18 -2 6
6 8 14 4 18 -4 3 -7 1 -7 -6z"/>
<path d="M5615 5120 c-3 -5 -1 -10 4 -10 6 0 11 5 11 10 0 6 -2 10 -4 10 -3 0
-8 -4 -11 -10z"/>
<path d="M5770 5119 c0 -5 5 -7 10 -4 6 3 10 8 10 11 0 2 -4 4 -10 4 -5 0 -10
-5 -10 -11z"/>
<path d="M5813 5115 c0 -8 4 -12 9 -9 5 3 6 10 3 15 -9 13 -12 11 -12 -6z"/>
<path d="M5926 5122 c-3 -5 1 -9 9 -9 8 0 12 4 9 9 -3 4 -7 8 -9 8 -2 0 -6 -4
-9 -8z"/>
<path d="M6055 5121 c-3 -5 -2 -12 3 -15 5 -3 9 1 9 9 0 17 -3 19 -12 6z"/>
<path d="M6164 5118 c-3 -4 5 -5 17 -3 30 6 36 14 9 12 -12 -1 -24 -5 -26 -9z"/>
<path d="M6431 5114 c0 -11 3 -14 6 -6 3 7 2 16 -1 19 -3 4 -6 -2 -5 -13z"/>
<path d="M6651 5108 c9 -16 29 -17 29 -2 0 3 -5 2 -12 -2 -7 -5 -9 -2 -6 8 4
8 0 15 -7 15 -10 0 -11 -5 -4 -19z"/>
<path d="M6753 5107 c-1 -11 -1 -18 0 -16 2 2 8 11 15 20 9 12 9 16 -1 16 -7
0 -14 -9 -14 -20z"/>
<path d="M6950 5119 c0 -5 5 -7 10 -4 6 3 10 8 10 11 0 2 -4 4 -10 4 -5 0 -10
-5 -10 -11z"/>
<path d="M6537 5114 c-10 -11 3 -24 23 -24 23 0 35 16 19 26 -8 4 -9 3 -5 -4
5 -8 -1 -12 -14 -12 -12 0 -18 5 -15 10 7 11 2 13 -8 4z"/>
<path d="M6620 5111 c0 -7 -5 -9 -12 -5 -7 5 -8 3 -3 -5 5 -9 10 -10 18 -2 6
6 8 14 4 18 -4 3 -7 1 -7 -6z"/>
<path d="M1359 5086 c-80 -28 -147 -72 -186 -123 -39 -50 -133 -194 -133 -203
0 -4 -41 -9 -90 -12 -71 -3 -96 -8 -118 -25 -46 -35 -27 -94 40 -129 16 -8 28
-19 28 -25 0 -5 -23 -44 -51 -85 -69 -103 -80 -131 -69 -181 20 -86 101 -237
206 -379 53 -72 184 -214 198 -214 4 0 22 -11 39 -23 97 -72 239 -69 292 5 14
22 14 24 -7 32 -182 72 -251 191 -224 381 12 78 34 176 49 220 l14 40 64 -3
c90 -4 119 3 159 40 45 42 59 68 66 121 8 59 -13 82 -98 106 -37 10 -70 16
-73 13 -20 -21 24 116 66 202 16 32 29 64 29 71 0 7 4 15 9 17 5 2 16 26 24
54 17 57 8 87 -34 110 -37 21 -126 16 -200 -10z"/>
<path d="M6203 5095 c-3 -9 -3 -18 -1 -21 3 -3 8 4 11 16 6 23 -1 27 -10 5z"/>
<path d="M6860 5106 c0 -2 7 -9 15 -16 9 -7 15 -8 15 -2 0 5 -7 12 -15 16 -8
3 -15 4 -15 2z"/>
<path d="M5644 5078 c-19 -22 -19 -22 0 -8 18 14 19 13 13 -3 -4 -10 -3 -16 2
-12 8 4 12 45 5 45 0 0 -9 -10 -20 -22z"/>
<path d="M5775 5090 c-4 -6 -11 -8 -16 -5 -5 4 -9 2 -9 -4 0 -19 16 -19 28 0
7 10 10 19 8 19 -3 0 -8 -5 -11 -10z"/>
<path d="M5973 5084 c-3 -8 -1 -20 6 -27 6 -6 11 -7 11 -2 0 11 29 -27 30 -39
0 -5 -10 -1 -22 10 -12 10 -18 14 -15 8 4 -8 -1 -12 -16 -11 -12 0 -30 -3 -39
-7 -11 -5 -18 -4 -18 2 0 5 9 12 20 15 11 3 20 11 19 19 0 10 -2 10 -6 1 -7
-20 -23 -15 -16 5 3 9 -5 2 -18 -17 -24 -34 -59 -50 -59 -28 0 7 -5 4 -11 -6
-6 -9 -15 -15 -20 -11 -6 3 -1 14 11 24 17 15 18 19 5 24 -17 6 -55 -13 -55
-28 0 -5 8 -2 18 7 25 23 39 22 19 -1 -10 -10 -15 -21 -12 -23 2 -3 -5 -11
-17 -18 -17 -10 -19 -10 -15 1 2 7 0 21 -4 30 -7 12 -4 20 8 27 10 6 13 11 6
11 -6 0 -15 -5 -19 -11 -4 -8 -9 -7 -15 2 -5 8 -9 10 -9 4 0 -5 4 -17 9 -24
11 -17 -5 -55 -18 -46 -5 2 -16 -6 -25 -20 -9 -14 -23 -25 -31 -25 -8 0 -15
-4 -15 -8 0 -5 10 -8 23 -7 12 2 21 8 19 14 -1 7 2 10 7 6 6 -3 8 -12 4 -20
-3 -8 0 -15 6 -15 6 0 12 5 12 10 1 6 3 15 4 20 1 6 3 13 4 16 0 4 8 1 16 -6
8 -7 15 -10 15 -6 0 4 10 0 23 -9 13 -8 27 -12 30 -8 4 3 7 1 7 -6 0 -8 7 -11
15 -7 8 3 22 3 31 -1 12 -5 13 -7 2 -14 -9 -6 -6 -8 9 -6 12 0 19 5 17 9 -10
16 7 30 21 18 20 -17 40 -3 24 16 -8 10 -15 11 -19 4 -4 -6 -13 -5 -26 6 -19
15 -18 15 3 9 16 -4 25 0 32 14 11 20 51 26 47 6 -2 -5 -1 -7 1 -2 3 4 9 7 14
7 6 0 8 -4 5 -9 -3 -5 2 -8 12 -7 9 0 16 -5 15 -11 -2 -7 2 -13 7 -13 12 0 13
12 3 26 -5 5 0 1 10 -9 9 -11 17 -25 17 -33 0 -8 5 -14 10 -14 6 0 10 7 10 15
0 8 -4 15 -10 15 -5 0 -10 5 -10 11 0 5 5 7 10 4 6 -3 10 2 10 12 0 15 2 16
10 3 9 -13 10 -13 10 0 0 13 1 13 10 0 5 -8 10 -10 10 -5 0 6 10 11 23 12 21
2 21 1 -3 -12 -14 -7 -28 -11 -32 -9 -5 3 -8 1 -8 -5 0 -5 3 -11 8 -14 4 -2 1
-2 -5 -1 -7 2 -13 0 -13 -5 0 -19 14 -17 55 6 25 13 49 22 54 19 5 -4 12 -2
15 2 3 5 18 8 33 7 15 -1 33 5 39 14 10 12 13 11 23 -7 7 -13 16 -20 22 -17 5
4 9 1 9 -5 0 -6 5 -8 10 -5 8 5 8 11 0 20 -7 9 -6 16 4 24 9 8 16 8 20 2 4 -5
16 -8 28 -6 11 3 18 2 14 -2 -3 -3 -1 -12 5 -20 13 -15 13 -15 -19 -18 -17 -2
-20 1 -13 8 17 17 13 31 -4 17 -21 -17 -19 -27 7 -41 19 -10 24 -8 41 12 20
25 43 30 64 16 7 -5 18 -5 24 -1 8 4 9 3 5 -4 -4 -7 -14 -12 -22 -12 -8 0 -13
-4 -9 -10 8 -13 34 -1 46 21 5 11 6 18 2 17 -4 -1 -17 3 -28 9 -11 6 -29 9
-39 7 -27 -4 -41 6 -25 17 11 8 9 14 -10 30 l-25 20 -16 -21 c-15 -20 -17 -21
-31 -4 -13 16 -12 17 6 11 18 -6 18 -6 3 5 -9 7 -25 19 -37 27 -11 8 -18 18
-16 21 2 4 -3 7 -11 7 -11 0 -9 -6 8 -24 25 -27 8 -32 -18 -5 -17 16 -18 16
-11 -1 6 -15 3 -17 -16 -12 -17 5 -19 4 -7 -4 13 -9 13 -11 -1 -11 -23 0 -30
11 -18 27 6 7 8 13 4 13 -4 0 -15 -10 -25 -22 -10 -13 -22 -19 -26 -15 -5 4
-2 12 6 17 8 5 12 11 9 14 -3 3 -15 -3 -27 -14 -23 -21 -37 -27 -27 -10 3 6 1
10 -5 10 -7 0 -9 -7 -6 -16 4 -10 1 -14 -6 -11 -7 2 -13 11 -13 20 0 9 -10 24
-23 32 -12 9 -22 12 -22 6 0 -5 8 -12 18 -15 9 -3 18 -17 18 -30 1 -19 -2 -24
-18 -21 -29 6 -50 -5 -44 -24 4 -11 1 -10 -9 4 -14 17 -14 20 2 30 24 14 27
40 6 56 -15 11 -16 11 -5 -1 18 -21 15 -32 -7 -20 -25 13 -38 -4 -21 -25 9
-10 9 -15 1 -15 -6 0 -18 11 -27 25 -9 14 -21 22 -27 18 -6 -4 -8 2 -5 15 7
25 0 30 -9 6z m97 -46 c0 -13 -23 -5 -28 10 -2 7 2 10 12 6 9 -3 16 -11 16
-16z m191 -19 c9 -17 8 -20 -3 -13 -10 6 -10 4 1 -10 8 -9 21 -14 30 -11 13 5
13 4 4 -6 -7 -7 -22 -13 -35 -13 -13 -1 -29 -6 -37 -10 -10 -6 -12 -5 -7 2 4
7 1 12 -8 12 -9 0 -16 -4 -16 -8 0 -5 -12 -14 -27 -21 l-28 -12 24 19 c26 21
17 34 -18 27 -12 -2 -19 0 -16 4 3 5 -2 11 -10 14 -10 4 -12 1 -8 -10 4 -10 2
-14 -4 -10 -6 4 -16 0 -23 -8 -10 -12 -16 -13 -27 -3 -8 6 -24 13 -36 15 -66
10 -88 10 -94 0 -3 -6 -1 -7 5 -3 8 5 10 1 6 -9 -4 -9 -13 -14 -21 -11 -22 9
-36 -4 -22 -20 6 -8 9 -17 5 -21 -3 -3 -6 -1 -6 5 0 7 -5 12 -11 12 -5 0 -7
-5 -3 -12 4 -7 3 -8 -4 -4 -6 4 -8 14 -5 24 6 15 5 15 -10 3 -14 -11 -20 -11
-34 0 -15 12 -16 12 -10 -4 6 -15 4 -16 -16 -5 -12 7 -25 12 -29 13 -3 0 -10
3 -14 7 -4 4 -13 3 -21 -4 -7 -6 -16 -8 -20 -4 -3 3 -1 6 6 6 7 0 9 5 5 12 -4
6 -3 8 4 4 6 -3 14 -2 17 4 5 8 11 8 20 0 9 -8 15 -8 20 0 3 6 11 8 16 5 5 -4
9 -1 9 6 0 7 6 4 14 -7 14 -19 14 -19 13 1 -1 14 5 20 21 21 12 1 23 3 25 4 1
1 13 4 27 5 14 1 33 6 43 10 12 5 17 2 17 -11 0 -17 1 -17 13 1 9 12 16 14 21
7 4 -6 13 -9 21 -5 9 3 23 -5 35 -18 19 -23 21 -23 24 4 2 17 39 16 54 -3 11
-13 11 -13 7 0 -6 17 47 43 70 34 7 -3 16 -1 20 5 9 15 13 14 26 -10z m100 12
c-5 -3 2 -14 14 -24 23 -16 24 -16 39 5 9 12 16 17 16 10 0 -7 4 -11 9 -7 5 3
12 1 15 -4 4 -5 2 -13 -4 -16 -8 -5 -7 -11 1 -21 6 -8 9 -14 5 -14 -3 0 -9 0
-13 0 -5 0 -8 6 -8 13 0 6 -10 12 -22 12 -12 0 -24 3 -28 7 -13 13 -54 -14
-48 -31 4 -9 -4 -4 -16 11 -13 16 -28 25 -37 21 -21 -8 -13 19 9 33 19 11 86
16 68 5z"/>
<path d="M6184 5006 c-3 -9 -13 -12 -22 -9 -13 4 -12 2 3 -10 21 -16 45 -12
45 8 0 20 -19 28 -26 11z m7 -19 c-10 -9 -11 -8 -5 6 3 10 9 15 12 12 3 -3 0
-11 -7 -18z"/>
<path d="M6229 5018 c-9 -29 -3 -44 19 -44 l24 0 -21 17 c-15 12 -17 19 -9 22
10 4 10 6 1 6 -7 1 -13 0 -14 -1z"/>
<path d="M5889 4993 c-1 -5 -1 -12 0 -16 2 -11 -32 -4 -42 8 -5 6 -5 0 -2 -12
6 -22 -8 -32 -19 -14 -7 10 -30 9 -33 -2 -6 -16 -2 -20 9 -9 9 9 15 9 26 0 11
-10 17 -8 28 7 9 11 14 14 14 6 0 -11 3 -11 15 -1 8 6 19 9 26 5 8 -6 8 -2 0
14 -12 22 -20 27 -22 14z"/>
<path d="M5990 4995 c0 -7 30 -13 34 -7 3 4 -4 9 -15 9 -10 1 -19 0 -19 -2z"/>
<path d="M6040 4986 c0 -2 8 -10 18 -17 15 -13 16 -12 3 4 -13 16 -21 21 -21
13z"/>
<path d="M6300 5019 c-11 -8 -9 -9 10 -3 21 6 23 5 13 -8 -16 -19 -5 -32 14
-17 10 9 10 15 2 25 -14 17 -19 17 -39 3z"/>
<path d="M6415 4999 c-3 -4 2 -6 10 -5 21 3 28 13 10 13 -9 0 -18 -4 -20 -8z"/>
<path d="M6176 5092 c-2 -4 -1 -14 4 -22 7 -11 9 -9 7 8 -1 24 -3 26 -11 14z"/>
<path d="M6250 5090 c-9 -6 -10 -10 -3 -10 6 0 15 5 18 10 8 12 4 12 -15 0z"/>
<path d="M6286 5085 c-9 -26 -7 -32 5 -12 6 10 9 21 6 23 -2 3 -7 -2 -11 -11z"/>
<path d="M6366 5085 c-9 -26 -7 -32 5 -12 6 10 9 21 6 23 -2 3 -7 -2 -11 -11z"/>
<path d="M5592 5078 c2 -6 10 -13 16 -14 7 -1 8 0 2 3 -5 2 -8 9 -4 14 3 5 0
9 -6 9 -7 0 -10 -5 -8 -12z"/>
<path d="M5694 5074 c1 -8 4 -15 7 -16 2 -2 3 -1 2 1 -2 2 2 9 7 16 7 8 5 12
-4 12 -8 0 -13 -6 -12 -13z"/>
<path d="M5800 5075 c-7 -9 -8 -15 -2 -15 5 0 12 7 16 15 3 8 4 15 2 15 -2 0
-9 -7 -16 -15z"/>
<path d="M5893 5078 c3 -9 -1 -19 -9 -22 -9 -3 -13 -10 -10 -15 4 -5 1 -12 -4
-14 -7 -4 -6 -5 1 -3 6 1 9 5 7 8 -2 4 5 13 14 20 13 10 15 17 7 28 -9 13 -10
13 -6 -2z"/>
<path d="M6131 5087 c2 -1 13 -9 24 -17 19 -14 19 -14 6 3 -7 9 -18 17 -24 17
-6 0 -8 -1 -6 -3z"/>
<path d="M6395 5080 c3 -5 8 -10 11 -10 2 0 4 5 4 10 0 6 -5 10 -11 10 -5 0
-7 -4 -4 -10z"/>
<path d="M6425 5081 c3 -2 0 -10 -6 -18 -9 -10 -15 -10 -25 -2 -9 7 -14 8 -14
1 0 -21 30 -20 54 3 23 21 23 24 6 22 -10 -1 -17 -3 -15 -6z"/>
<path d="M6595 5081 c3 -5 -1 -11 -7 -14 -7 -2 -11 -7 -8 -10 3 -3 13 0 23 8
16 11 16 13 2 19 -9 3 -14 2 -10 -3z"/>
<path d="M6630 5080 c0 -5 5 -10 10 -10 6 0 10 5 10 10 0 6 -4 10 -10 10 -5 0
-10 -4 -10 -10z"/>
<path d="M6672 5081 c-11 -6 -10 -10 4 -15 9 -4 22 -2 28 4 8 8 6 9 -8 4 -13
-5 -17 -4 -12 4 8 14 6 15 -12 3z"/>
<path d="M5855 5070 c6 -10 4 -12 -11 -6 -15 6 -17 5 -6 -5 9 -9 15 -10 23 -2
8 8 7 13 -2 18 -8 6 -10 4 -4 -5z"/>
<path d="M5441 5061 c-8 -5 -9 -11 -3 -15 5 -3 12 1 16 9 6 17 6 18 -13 6z"/>
<path d="M5554 5062 c3 -5 0 -12 -6 -15 -7 -2 -10 -7 -7 -11 3 -4 12 0 18 8 9
11 9 16 0 22 -7 4 -9 3 -5 -4z"/>
<path d="M3874 5046 c1 -8 5 -18 8 -22 4 -3 5 1 4 10 -1 8 -5 18 -8 22 -4 3
-5 -1 -4 -10z"/>
<path d="M4759 5058 c-9 -17 -3 -51 10 -60 14 -11 14 -11 5 2 -6 8 -10 25 -9
38 1 19 -2 29 -6 20z"/>
<path d="M4513 5015 c0 -20 4 -30 8 -24 4 7 6 21 3 32 -6 33 -11 29 -11 -8z"/>
<path d="M4675 5041 c-3 -5 -2 -12 3 -15 5 -3 9 1 9 9 0 17 -3 19 -12 6z"/>
<path d="M5470 5040 c0 -5 5 -10 11 -10 5 0 7 5 4 10 -3 6 -8 10 -11 10 -2 0
-4 -4 -4 -10z"/>
<path d="M5615 5040 c3 -5 11 -10 16 -10 6 0 7 5 4 10 -3 6 -11 10 -16 10 -6
0 -7 -4 -4 -10z"/>
<path d="M5670 5035 c0 -8 2 -15 4 -15 2 0 6 7 10 15 3 8 1 15 -4 15 -6 0 -10
-7 -10 -15z"/>
<path d="M6100 5040 c0 -5 5 -10 10 -10 6 0 10 5 10 10 0 6 -4 10 -10 10 -5 0
-10 -4 -10 -10z"/>
<path d="M7113 5035 c0 -8 4 -12 9 -9 5 3 6 10 3 15 -9 13 -12 11 -12 -6z"/>
<path d="M3730 5019 c0 -5 5 -7 10 -4 6 3 10 8 10 11 0 2 -4 4 -10 4 -5 0 -10
-5 -10 -11z"/>
<path d="M3815 5019 c-3 -4 2 -6 10 -5 21 3 28 13 10 13 -9 0 -18 -4 -20 -8z"/>
<path d="M3930 5020 c0 -5 5 -10 11 -10 5 0 7 5 4 10 -3 6 -8 10 -11 10 -2 0
-4 -4 -4 -10z"/>
<path d="M4657 5009 c7 -7 15 -10 18 -7 3 3 -2 9 -12 12 -14 6 -15 5 -6 -5z"/>
<path d="M4477 4993 c3 -7 6 -13 8 -13 2 0 5 6 8 13 3 8 -1 14 -8 14 -7 0 -11
-6 -8 -14z"/>
<path d="M4580 5000 c8 -5 22 -9 30 -9 10 0 8 3 -5 9 -27 12 -43 12 -25 0z"/>
<path d="M4710 5000 c0 -5 5 -12 10 -15 6 -3 10 -1 10 5 0 6 6 8 13 4 6 -4 8
-3 4 1 -10 12 -37 15 -37 5z"/>
<path d="M6812 4998 c-7 -7 -12 -17 -12 -22 0 -6 4 -5 9 3 6 9 11 10 15 2 4
-6 3 -11 -2 -11 -15 0 -8 -43 7 -48 9 -3 11 0 6 7 -4 7 1 22 11 34 11 12 15
19 10 15 -11 -10 -38 11 -30 23 8 13 0 11 -14 -3z"/>
<path d="M6905 5001 c-3 -5 1 -16 9 -24 8 -8 12 -18 8 -22 -4 -4 0 -5 8 -3 8
3 14 10 13 16 -2 6 4 9 12 6 8 -4 15 -2 15 4 0 6 -11 9 -25 7 -14 -1 -28 2
-32 8 -3 6 -1 7 5 3 7 -4 12 -2 12 3 0 13 -17 14 -25 2z"/>
<path d="M4535 4991 c-9 -15 13 -23 32 -11 15 9 14 10 -6 4 -16 -4 -21 -3 -17
5 4 6 5 11 2 11 -3 0 -7 -4 -11 -9z"/>
<path d="M4635 4989 c-4 -6 -5 -12 -2 -15 2 -3 7 2 10 11 7 17 1 20 -8 4z"/>
<path d="M4790 4990 c0 -5 5 -10 11 -10 5 0 7 5 4 10 -3 6 -8 10 -11 10 -2 0
-4 -4 -4 -10z"/>
<path d="M4430 4980 c0 -5 5 -10 10 -10 6 0 10 5 10 10 0 6 -4 10 -10 10 -5 0
-10 -4 -10 -10z"/>
<path d="M6635 4980 c-3 -6 -11 -8 -16 -5 -5 4 -9 1 -9 -5 0 -6 11 -8 26 -6
15 3 24 2 20 -1 -12 -12 -40 -12 -54 -1 -10 9 -12 8 -10 -2 3 -13 59 -60 66
-55 2 2 5 16 7 33 4 32 -17 62 -30 42z m15 -50 c0 -5 -2 -10 -4 -10 -3 0 -8 5
-11 10 -3 6 -1 10 4 10 6 0 11 -4 11 -10z"/>
<path d="M6722 4974 c-17 -19 -15 -21 16 -20 23 1 27 -3 24 -24 -2 -23 -2 -24
14 -8 15 14 15 20 4 33 -7 9 -20 13 -29 10 -13 -5 -13 -4 -4 6 10 10 16 9 31
-4 24 -22 35 -22 21 1 -13 21 -59 24 -77 6z"/>
<path d="M7066 4973 c-8 -20 8 -38 24 -28 8 5 8 11 1 19 -6 7 -8 16 -4 19 3 4
2 7 -4 7 -6 0 -14 -8 -17 -17z"/>
<path d="M3759 4978 c-5 -18 -6 -38 -1 -34 7 8 12 36 6 36 -2 0 -4 -1 -5 -2z"/>
<path d="M3851 4971 c-8 -5 -23 -8 -34 -5 -11 2 -16 0 -13 -4 4 -4 11 -7 14
-7 4 0 14 -4 22 -9 8 -5 12 -6 8 -1 -4 4 0 14 10 21 19 15 14 18 -7 5z"/>
<path d="M3975 4959 c3 -14 -1 -19 -13 -17 -9 2 -21 8 -25 13 -5 6 -7 4 -4 -5
4 -16 47 -21 46 -6 0 5 5 12 11 16 8 5 7 9 -3 13 -11 4 -15 0 -12 -14z"/>
<path d="M6366 4971 c-4 -5 -2 -12 3 -15 5 -4 12 -2 15 3 4 5 2 12 -3 15 -5 4
-12 2 -15 -3z"/>
<path d="M4010 4960 c0 -5 5 -10 10 -10 6 0 10 5 10 10 0 6 -4 10 -10 10 -5 0
-10 -4 -10 -10z"/>
<path d="M4070 4966 c0 -3 11 -16 24 -29 23 -23 76 -34 76 -16 0 4 -12 6 -26
3 -18 -3 -23 -1 -18 7 4 8 3 9 -4 5 -7 -4 -12 -3 -12 1 0 5 -9 14 -20 21 -11
7 -20 10 -20 8z"/>
<path d="M5947 4956 c-3 -8 4 -22 15 -33 12 -10 18 -12 14 -5 -9 15 10 16 19
1 9 -14 28 -6 31 14 2 13 -5 15 -39 12 -23 -2 -36 -1 -29 2 14 5 17 23 3 23
-5 0 -11 -6 -14 -14z"/>
<path d="M6688 4964 c-9 -8 24 -44 34 -38 4 3 8 10 8 15 0 6 -4 8 -9 4 -6 -3
-14 2 -18 10 -5 9 -12 13 -15 9z"/>
<path d="M3871 4953 c-1 -17 16 -25 25 -12 4 7 3 9 -4 5 -5 -3 -13 0 -15 6 -4
9 -6 10 -6 1z"/>
<path d="M3714 4933 c21 -25 36 -30 36 -11 0 6 -3 8 -7 5 -3 -4 -16 1 -27 10
-21 18 -21 18 -2 -4z"/>
<path d="M3908 4938 c-3 -8 -4 -26 -3 -41 2 -18 -1 -27 -8 -24 -7 2 -11 12 -9
22 2 10 -1 14 -7 10 -6 -3 -11 -14 -11 -23 0 -10 -3 -13 -8 -7 -10 14 -39 18
-46 6 -4 -5 3 -10 14 -10 11 -1 29 -1 41 -2 17 0 18 -3 9 -14 -8 -10 -18 -12
-29 -6 -9 5 -21 7 -27 4 -16 -5 -38 23 -24 32 5 3 10 12 10 18 0 7 -5 4 -11
-5 -5 -9 -16 -15 -24 -12 -8 4 -12 11 -8 17 4 6 1 7 -7 2 -10 -6 -6 -13 14
-28 25 -18 26 -20 9 -33 -17 -13 -17 -14 2 -7 18 6 19 5 5 -13 -14 -18 -14
-18 6 -1 26 22 41 22 23 0 -10 -11 -10 -14 -1 -9 11 7 17 -5 13 -27 -1 -5 3
-6 9 -2 6 4 9 14 8 22 -2 9 2 18 8 20 12 4 15 -27 3 -42 -4 -6 -4 -17 1 -25 7
-10 10 -11 10 -2 0 6 5 12 10 12 6 0 10 -7 10 -16 0 -8 5 -12 10 -9 6 4 8 10
5 15 -3 5 3 13 12 19 10 6 12 11 6 11 -7 0 -13 5 -13 12 0 9 3 9 12 0 21 -21
29 -13 23 21 -6 31 -5 31 10 12 9 -11 13 -13 9 -5 -7 13 -5 13 9 1 13 -10 14
-17 6 -33 -9 -17 -8 -19 10 -13 12 4 21 2 21 -4 0 -6 -3 -10 -7 -10 -20 3 -30
-2 -30 -16 0 -21 11 -19 33 6 17 20 18 22 3 32 -15 10 -15 12 5 30 11 10 15
15 7 11 -9 -5 -12 -3 -7 4 5 8 1 10 -11 6 -15 -5 -15 -4 -3 4 8 6 18 8 22 6 4
-3 8 -1 8 4 0 5 7 9 15 9 8 0 11 -5 8 -10 -3 -6 -1 -7 5 -3 8 5 10 1 6 -11 -6
-15 -4 -15 10 2 11 14 15 15 14 5 -2 -8 -7 -19 -13 -23 -6 -5 -3 -7 8 -3 9 3
17 1 17 -4 0 -6 -7 -10 -15 -10 -17 0 -20 -16 -4 -25 6 -4 8 -13 5 -21 -3 -7
-1 -16 4 -19 11 -7 11 -5 14 38 1 28 28 53 45 42 5 -3 12 -1 15 4 3 5 -1 11
-9 15 -8 3 -17 1 -20 -4 -6 -9 -36 -7 -35 3 0 4 0 10 0 13 0 4 8 0 17 -7 14
-12 16 -12 8 0 -5 10 -4 12 4 7 6 -4 11 -4 10 1 -3 20 2 34 11 28 5 -3 7 -12
3 -20 -3 -8 0 -15 6 -15 6 0 10 3 10 8 -4 25 2 32 20 23 10 -6 22 -7 26 -3 4
4 3 -3 -3 -14 -6 -12 -8 -24 -5 -28 3 -3 1 -6 -5 -6 -7 0 -12 -5 -12 -11 0 -8
5 -8 15 1 8 7 12 17 9 24 -3 6 1 3 9 -7 10 -12 17 -15 22 -7 4 6 0 17 -9 23
-11 8 -13 17 -6 27 5 8 12 11 17 7 4 -5 1 -12 -7 -17 -11 -7 -10 -9 7 -8 14 2
19 7 16 18 -4 10 0 8 11 -5 10 -11 14 -13 10 -5 -7 13 -5 13 9 1 9 -7 14 -17
11 -22 -3 -5 3 -6 13 -3 16 5 16 4 -1 -6 -10 -7 -21 -8 -25 -4 -10 15 -29 14
-34 0 -4 -11 3 -14 29 -11 19 1 37 -2 40 -6 3 -5 10 -9 16 -9 7 0 6 6 -2 15
-7 8 -9 15 -5 15 4 0 1 10 -7 23 -8 12 -14 30 -12 40 2 15 0 16 -13 5 -16 -13
-96 -20 -88 -8 2 4 -2 7 -10 7 -8 0 -12 -4 -9 -8 3 -5 -16 -7 -41 -4 -35 3
-45 0 -45 -11 0 -9 -5 -12 -10 -9 -6 4 -10 12 -9 18 4 31 -1 41 -13 29 -17
-17 -33 -15 -19 2 9 11 9 16 0 22 -13 8 -42 -24 -33 -37 7 -11 1 -11 -30 1
-19 7 -24 6 -20 -3 3 -8 -4 -13 -17 -14 -18 -2 -19 0 -7 15 12 15 11 16 -4 3
-10 -7 -15 -18 -11 -24 3 -6 1 -7 -6 -3 -6 4 -9 15 -7 24 7 22 -9 50 -16 30z
m143 -12 c-13 -16 -1 -28 21 -23 7 2 9 2 5 -1 -5 -2 -1 -12 8 -22 16 -17 16
-18 -2 -15 -10 2 -19 4 -20 5 -9 8 -32 4 -57 -8 -28 -14 -29 -15 -11 -28 10
-8 15 -14 11 -14 -4 0 -19 9 -33 20 -30 24 -45 18 -39 -16 4 -21 3 -24 -10
-14 -14 12 -16 10 -18 -19 -1 -8 -12 -15 -25 -16 -23 -2 -23 -1 -5 12 16 12
17 15 4 23 -10 7 -11 10 -2 10 6 0 12 5 12 11 0 5 -6 7 -12 4 -7 -4 -2 3 12
16 14 12 24 26 22 32 -2 6 4 5 12 -3 13 -10 19 -10 31 0 9 8 15 8 15 2 0 -6
-6 -12 -12 -15 -7 -3 -3 -4 8 -4 13 1 20 6 17 13 -7 18 16 27 32 14 11 -9 15
-9 16 -1 1 6 3 16 4 21 1 6 3 15 4 20 0 6 6 10 12 10 8 0 8 -4 0 -14z m256
-33 c-4 -3 -1 -13 6 -22 11 -14 10 -14 -5 -2 -16 12 -16 31 -1 31 4 0 3 -3 0
-7z m-186 -26 c-10 -9 -11 -8 -5 6 3 10 9 15 12 12 3 -3 0 -11 -7 -18z m-276
-26 c3 -5 2 -12 -3 -15 -5 -3 -9 1 -9 9 0 17 3 19 12 6z"/>
<path d="M3995 4880 c-3 -5 -1 -10 4 -10 6 0 11 5 11 10 0 6 -2 10 -4 10 -3 0
-8 -4 -11 -10z"/>
<path d="M3909 4855 c-1 -3 -2 -8 -3 -12 -1 -5 -5 -15 -11 -23 -7 -12 -6 -13
7 -3 8 7 19 9 24 5 4 -4 3 0 -4 10 -10 13 -10 17 0 21 10 4 10 6 1 6 -7 1 -14
-1 -14 -4z"/>
<path d="M6875 4940 c3 -5 8 -10 11 -10 2 0 4 5 4 10 0 6 -5 10 -11 10 -5 0
-7 -4 -4 -10z"/>
<path d="M3995 4930 c-3 -5 -1 -10 4 -10 6 0 11 5 11 10 0 6 -2 10 -4 10 -3 0
-8 -4 -11 -10z"/>
<path d="M5623 4933 c-7 -3 -13 -9 -13 -15 0 -6 7 -5 18 3 9 7 14 9 10 5 -4
-5 -3 -15 2 -21 8 -9 6 -14 -4 -18 -11 -4 -13 -1 -9 11 3 9 3 14 -2 10 -4 -4
-14 -3 -22 3 -17 15 -16 -1 1 -24 11 -15 19 -16 34 -8 11 6 22 7 26 4 3 -3 6
-2 6 3 -1 17 -35 52 -47 47z"/>
<path d="M3675 4920 c-3 -5 -1 -10 4 -10 6 0 11 5 11 10 0 6 -2 10 -4 10 -3 0
-8 -4 -11 -10z"/>
<path d="M3856 4919 c4 -8 -1 -9 -17 -5 -20 6 -21 5 -6 -4 18 -11 37 -6 37 11
0 5 -5 9 -11 9 -5 0 -7 -5 -3 -11z"/>
<path d="M5357 4918 c-9 -6 -9 -8 1 -8 7 0 11 -4 8 -8 -7 -12 12 -38 21 -28 4
5 2 11 -5 13 -10 4 -10 8 -1 19 6 8 15 11 20 8 5 -3 9 -1 9 5 0 11 -35 11 -53
-1z"/>
<path d="M5484 4918 c-2 -4 -13 -5 -24 -3 -17 3 -18 1 -10 -15 6 -10 16 -22
23 -26 6 -4 9 -4 5 1 -12 13 35 45 50 33 9 -8 11 -7 6 5 -6 15 -41 19 -50 5z"/>
<path d="M5390 4900 c0 -15 15 -19 30 -9 8 5 13 9 10 10 -3 0 -13 2 -22 4 -10
2 -18 -1 -18 -5z"/>
<path d="M4715 4877 c-8 -11 -12 -25 -9 -31 3 -6 -2 -2 -10 8 -14 18 -21 15
-17 -7 1 -5 -3 -6 -9 -2 -6 3 -8 10 -5 15 3 5 -4 8 -15 7 -26 -2 -35 -28 -14
-44 13 -10 19 -9 31 2 17 17 48 9 34 -9 -5 -6 -7 -16 -3 -21 10 -14 44 -15 39
-1 -3 6 -10 10 -16 8 -22 -5 7 36 39 55 27 16 41 35 23 32 -5 -1 -10 0 -13 1
-24 9 -42 5 -55 -13z m22 -7 c-2 -11 -8 -25 -14 -31 -13 -13 -12 2 2 34 10 23
16 22 12 -3z m28 11 c3 -5 2 -12 -3 -15 -5 -3 -9 1 -9 9 0 17 3 19 12 6z
m-110 -41 c3 -6 -1 -7 -9 -4 -18 7 -21 14 -7 14 6 0 13 -4 16 -10z"/>
<path d="M4829 4899 c-6 -31 -5 -37 7 -35 22 3 25 12 9 26 -8 7 -15 11 -16 9z"/>
<path d="M4593 4879 c-11 -11 -6 -49 7 -49 12 0 18 23 11 43 -5 13 -9 15 -18
6z"/>
<path d="M3735 4871 c-3 -5 -2 -12 3 -15 5 -3 9 1 9 9 0 17 -3 19 -12 6z"/>
<path d="M4175 4853 c3 -23 -14 -45 -28 -36 -6 3 -7 1 -3 -5 4 -7 11 -12 16
-12 12 0 41 56 33 64 -12 12 -21 6 -18 -11z"/>
<path d="M4469 4849 c-20 -20 -20 -23 -5 -31 9 -5 13 -15 10 -21 -4 -7 3 -2
15 11 13 12 27 19 34 15 7 -4 6 0 -2 10 -9 12 -10 17 -2 17 7 0 9 5 5 11 -4 8
-12 2 -21 -15 -13 -26 -33 -27 -33 -3 0 8 3 8 9 -1 6 -10 10 -9 14 7 7 26 2
26 -24 0z"/>
<path d="M4366 4847 c3 -8 10 -14 17 -14 7 0 21 -4 32 -8 28 -11 16 0 -22 19
-25 12 -31 13 -27 3z"/>
<path d="M4783 4845 c0 -8 5 -15 10 -15 5 0 4 -7 -3 -15 -7 -8 -8 -15 -3 -15
9 0 46 39 38 41 -3 1 -8 2 -12 3 -5 1 -13 4 -19 8 -6 4 -11 1 -11 -7z"/>
<path d="M4033 4831 c-1 -11 6 -26 15 -33 11 -9 14 -10 8 0 -4 6 -2 12 3 12 7
0 7 7 -1 20 -16 25 -23 25 -25 1z"/>
<path d="M5385 4831 c-3 -6 3 -9 14 -8 11 0 17 5 15 9 -7 11 -22 10 -29 -1z"/>
<path d="M3957 4804 c2 -7 -8 -19 -24 -28 -15 -8 -21 -15 -13 -16 13 0 13 -1
0 -10 -8 -5 -11 -12 -7 -17 9 -9 28 17 21 29 -3 4 0 8 6 8 7 0 10 -7 7 -14 -4
-10 -1 -13 8 -10 7 3 12 13 10 22 -1 9 1 24 6 33 5 10 4 16 -6 16 -7 0 -11 -6
-8 -13z"/>
<path d="M3943 4733 c-19 -7 -15 -33 5 -33 13 0 14 2 4 9 -11 7 -11 9 1 14 19
7 16 -21 -4 -35 -11 -8 -11 -9 3 -5 18 6 72 -38 64 -51 -3 -5 1 -9 8 -9 7 0
12 10 12 21 -1 12 5 20 12 19 6 -2 12 7 12 19 0 20 -1 20 -19 4 -16 -14 -23
-15 -41 -6 -12 6 -19 17 -17 25 3 7 0 18 -6 24 -12 12 -15 12 -34 4z"/>
<path d="M8823 4679 c-185 -25 -502 -193 -641 -339 -45 -48 -133 -182 -166
-255 -15 -33 -32 -69 -37 -80 -28 -61 -73 -234 -84 -320 -17 -137 1 -217 58
-259 37 -27 124 -28 267 -2 14 3 46 7 72 10 69 8 98 16 143 39 132 69 271 225
469 526 127 193 138 224 64 178 -64 -40 -127 -105 -233 -243 -124 -160 -255
-242 -320 -200 -33 22 -32 33 5 34 104 3 257 152 448 437 78 118 148 250 163
308 32 127 -45 189 -208 166z m-156 -286 c-3 -37 -8 -81 -12 -98 -4 -16 -8
-37 -10 -45 -2 -8 -4 -16 -5 -17 -2 -2 -3 -6 -4 -10 -9 -39 -85 -224 -95 -233
-4 -3 -19 -25 -35 -50 -16 -25 -50 -65 -75 -89 l-46 -43 -7 33 c-3 19 -4 52
-2 74 8 58 45 194 55 201 5 3 9 12 9 20 0 21 102 223 140 279 32 47 68 70 84
55 4 -5 6 -39 3 -77z"/>
<path d="M7394 4642 c4 -3 14 -7 22 -8 9 -1 13 0 10 4 -4 3 -14 7 -22 8 -9 1
-13 0 -10 -4z"/>
<path d="M7420 4611 c0 -6 4 -13 10 -16 6 -3 7 1 4 9 -7 18 -14 21 -14 7z"/>
<path d="M4015 4600 c-3 -5 -1 -10 4 -10 6 0 11 5 11 10 0 6 -2 10 -4 10 -3 0
-8 -4 -11 -10z"/>
<path d="M7455 4591 c-3 -5 -2 -12 3 -15 5 -3 9 1 9 9 0 17 -3 19 -12 6z"/>
<path d="M4155 4509 c-4 -6 -5 -12 -2 -15 2 -3 7 2 10 11 7 17 1 20 -8 4z"/>
<path d="M7495 4499 c-3 -4 2 -6 10 -5 21 3 28 13 10 13 -9 0 -18 -4 -20 -8z"/>
<path d="M2435 4473 c-25 -3 -142 -27 -195 -40 -8 -2 -21 -5 -27 -5 -7 -1 -13
-4 -13 -7 0 -4 -20 -13 -46 -20 -25 -7 -51 -19 -57 -25 -7 -6 -29 -20 -50 -30
-21 -11 -49 -30 -63 -43 -14 -13 -29 -23 -35 -23 -5 0 -9 -5 -9 -11 0 -6 -11
-20 -25 -31 -51 -40 -114 -153 -140 -249 -25 -94 -10 -241 33 -326 22 -42 111
-165 141 -194 9 -9 34 -38 56 -64 22 -27 45 -53 51 -59 5 -6 77 -92 158 -191
233 -283 256 -307 414 -436 16 -13 122 -62 142 -66 45 -7 110 -8 110 -2 0 4 9
6 20 4 11 -2 24 3 30 13 5 9 10 13 10 8 0 -5 7 -3 15 4 8 7 15 10 15 7 0 -3
15 10 33 29 49 52 56 61 51 67 -2 2 2 10 11 17 8 7 15 18 15 24 0 6 6 23 14
37 20 39 56 146 58 174 1 14 6 25 10 25 4 0 5 9 3 20 -2 11 -1 20 3 20 4 0 8
8 8 18 1 9 4 30 7 46 30 144 30 493 0 591 -4 11 -7 27 -8 35 -2 24 -37 124
-48 138 -5 6 -6 12 -2 12 3 0 -3 12 -14 26 -12 15 -21 31 -21 36 0 5 -11 21
-25 36 -14 15 -25 33 -25 40 0 7 -4 10 -10 7 -5 -3 -10 -1 -10 4 0 6 -7 11
-15 11 -8 0 -15 4 -15 9 0 8 -47 31 -80 39 -27 7 -124 1 -163 -9 -20 -5 -42
-7 -47 -4 -6 3 -10 1 -10 -5 0 -7 -7 -10 -15 -6 -8 3 -15 0 -15 -6 0 -6 -3 -9
-6 -5 -11 11 -84 -33 -84 -51 0 -9 16 -43 34 -74 79 -130 135 -253 150 -331
28 -138 34 -188 34 -293 1 -68 -2 -126 -7 -128 -4 -3 -8 -19 -9 -37 -1 -41
-50 -137 -74 -144 -10 -4 -18 -10 -18 -14 0 -16 -62 -10 -97 10 -114 64 -250
290 -299 499 -21 89 -12 323 14 365 4 6 7 17 9 25 8 57 154 250 189 250 8 0
14 4 14 8 0 8 74 47 76 41 0 -2 7 1 15 7 16 13 53 22 117 29 23 2 47 7 52 10
5 3 11 2 14 -3 8 -13 124 -8 137 5 6 6 13 26 15 44 3 25 -2 37 -23 55 -15 13
-29 21 -32 19 -2 -3 -9 -1 -15 4 -19 14 -116 42 -126 36 -6 -4 -10 -1 -10 4 0
6 -3 10 -7 10 -5 -1 -10 0 -13 1 -20 8 -226 17 -275 13z"/>
<path d="M7497 4442 c3 -7 9 -10 12 -5 3 4 10 11 15 15 4 4 -1 6 -12 5 -12 -1
-18 -6 -15 -15z"/>
<path d="M7530 4430 c14 -9 7 -14 -13 -11 -5 1 -6 -3 -2 -9 5 -8 11 -8 21 1
15 12 10 29 -9 29 -7 0 -6 -4 3 -10z"/>
<path d="M7545 4400 c-10 -11 -14 -20 -9 -20 5 0 15 9 22 20 7 11 11 20 9 20
-2 0 -12 -9 -22 -20z"/>
<path d="M4270 4399 c0 -5 5 -7 10 -4 6 3 10 8 10 11 0 2 -4 4 -10 4 -5 0 -10
-5 -10 -11z"/>
<path d="M4255 4360 c3 -5 8 -10 11 -10 2 0 4 5 4 10 0 6 -5 10 -11 10 -5 0
-7 -4 -4 -10z"/>
<path d="M7557 4353 c5 -12 3 -14 -7 -8 -9 5 -11 4 -6 -4 4 -6 12 -9 17 -6 12
8 12 35 -1 35 -5 0 -6 -7 -3 -17z"/>
<path d="M4315 4331 c-3 -5 -2 -12 3 -15 5 -3 9 1 9 9 0 17 -3 19 -12 6z"/>
<path d="M4380 4310 c35 -24 54 -31 30 -11 -14 11 -29 21 -35 21 -5 0 -3 -5 5
-10z"/>
<path d="M7580 4306 c0 -2 9 -6 20 -9 11 -3 18 -1 14 4 -5 9 -34 13 -34 5z"/>
<path d="M4430 4261 c8 -5 18 -7 24 -4 5 4 7 -1 3 -10 -3 -9 -2 -19 2 -21 5
-3 8 4 7 16 -1 14 -9 22 -26 25 -18 2 -21 1 -10 -6z"/>
<path d="M4405 4240 c-3 -6 1 -7 9 -4 18 7 21 14 7 14 -6 0 -13 -4 -16 -10z"/>
<path d="M4456 4198 c3 -5 10 -6 15 -3 13 9 11 12 -6 12 -8 0 -12 -4 -9 -9z"/>
<path d="M3730 4189 c0 -5 -4 -8 -8 -6 -10 3 -62 -49 -62 -63 0 -5 -4 -10 -10
-10 -5 0 -9 -3 -8 -7 1 -5 -10 -33 -24 -63 -14 -30 -35 -82 -46 -115 -27 -81
-113 -419 -128 -505 -2 -14 -9 -45 -14 -70 -6 -25 -12 -56 -14 -70 -3 -14 -5
-25 -6 -25 -2 0 -9 -33 -14 -65 -2 -14 -8 -52 -15 -85 -6 -33 -13 -82 -16
-109 -4 -28 -8 -52 -10 -55 -1 -3 -6 -35 -10 -71 -3 -36 -8 -72 -10 -80 -11
-37 -18 -157 -19 -290 0 -126 3 -154 23 -210 27 -76 50 -110 97 -146 35 -27
114 -42 114 -23 0 6 4 8 9 5 12 -8 52 31 84 81 15 24 27 45 27 47 0 3 19 38
43 78 23 40 48 84 55 98 20 41 52 91 67 106 7 8 17 24 20 35 4 12 15 31 26 43
10 11 17 23 16 26 -1 3 10 19 25 35 15 16 25 32 22 37 -3 4 3 8 12 8 10 0 15
3 11 6 -6 7 1 17 56 76 20 22 37 43 37 47 1 7 58 71 64 71 2 0 2 -28 1 -62 -6
-115 -6 -242 1 -313 3 -38 7 -85 8 -102 0 -18 4 -33 7 -33 4 0 7 -11 7 -23 0
-37 59 -218 87 -269 14 -25 36 -57 50 -72 14 -15 25 -30 25 -34 0 -4 27 -22
60 -39 33 -17 60 -28 60 -24 0 3 20 6 45 5 25 0 45 3 45 8 0 4 3 7 8 6 15 -3
62 15 62 24 0 5 4 7 8 4 10 -6 56 41 65 65 4 14 0 42 -30 179 -3 14 -6 31 -6
38 0 6 -3 12 -6 12 -3 0 -7 10 -7 23 -1 12 -4 45 -7 72 -8 72 -18 370 -21 665
-2 140 -6 264 -9 276 -14 56 -37 125 -47 144 -19 35 -81 100 -96 100 -8 0 -14
4 -14 8 0 11 -69 36 -106 38 -17 1 -47 -6 -65 -14 -19 -8 -37 -14 -41 -14 -5
1 -8 -5 -8 -14 0 -8 -4 -12 -10 -9 -5 3 -10 1 -10 -4 0 -6 -4 -10 -8 -9 -4 2
-20 -9 -34 -24 -14 -15 -29 -24 -33 -20 -5 4 -5 2 -2 -5 4 -6 -4 -20 -18 -32
-15 -11 -26 -23 -27 -28 0 -4 -4 -7 -9 -5 -5 1 -9 -5 -9 -13 0 -7 -8 -19 -17
-24 -10 -6 -14 -11 -9 -11 5 0 -3 -10 -18 -21 -15 -12 -25 -23 -22 -26 3 -3
-4 -15 -15 -27 -11 -11 -30 -34 -43 -50 -27 -32 -25 -41 -10 79 4 33 8 74 10
90 1 17 3 30 4 30 4 0 9 112 14 270 7 231 -21 353 -99 424 -33 30 -105 50
-105 30z"/>
<path d="M4550 4180 c0 -5 5 -10 11 -10 5 0 7 5 4 10 -3 6 -8 10 -11 10 -2 0
-4 -4 -4 -10z"/>
<path d="M4634 4120 c0 -11 4 -19 8 -18 4 2 13 -6 21 -16 13 -18 14 -18 11 5
-1 13 -3 26 -3 28 -1 2 -9 -3 -18 -10 -15 -12 -16 -12 -10 3 3 10 2 20 -2 22
-5 3 -8 -3 -7 -14z"/>
<path d="M4650 4060 c0 -5 5 -10 11 -10 5 0 7 5 4 10 -3 6 -8 10 -11 10 -2 0
-4 -4 -4 -10z"/>
<path d="M4675 4041 c-3 -5 -2 -12 3 -15 5 -3 9 1 9 9 0 17 -3 19 -12 6z"/>
<path d="M4743 4044 c4 -4 2 -13 -4 -21 -15 -17 -1 -17 16 1 12 12 12 15 -2
21 -10 3 -14 3 -10 -1z"/>
<path d="M4780 3970 c-6 -11 -9 -20 -8 -20 2 0 11 9 21 20 9 11 13 20 7 20 -5
0 -14 -9 -20 -20z"/>
<path d="M4716 3958 c3 -5 10 -6 15 -3 13 9 11 12 -6 12 -8 0 -12 -4 -9 -9z"/>
<path d="M4790 3944 c0 -13 18 -39 24 -34 2 3 -2 14 -10 24 -8 11 -14 16 -14
10z"/>
<path d="M4842 3896 c7 -8 15 -12 17 -11 5 6 -10 25 -20 25 -5 0 -4 -6 3 -14z"/>
<path d="M4855 3840 c3 -5 8 -10 11 -10 2 0 4 5 4 10 0 6 -5 10 -11 10 -5 0
-7 -4 -4 -10z"/>
<path d="M4910 3830 c0 -5 5 -10 11 -10 5 0 7 5 4 10 -3 6 -8 10 -11 10 -2 0
-4 -4 -4 -10z"/>
<path d="M4878 3813 c7 -3 16 -2 19 1 4 3 -2 6 -13 5 -11 0 -14 -3 -6 -6z"/>
<path d="M4904 3798 c-4 -7 -3 -8 4 -4 12 7 62 -36 62 -53 0 -6 -8 -8 -17 -5
-15 5 -16 4 -3 -5 8 -7 24 -16 35 -22 18 -9 19 -9 3 4 -10 8 -15 17 -11 20 8
9 -23 54 -46 67 -14 7 -22 7 -27 -2z"/>
<path d="M4916 3767 c3 -8 11 -14 19 -14 20 0 19 4 -5 17 -15 8 -18 8 -14 -3z"/>
<path d="M4915 3731 c-3 -5 -2 -12 3 -15 5 -3 9 1 9 9 0 17 -3 19 -12 6z"/>
<path d="M4983 3680 c2 -8 8 -15 13 -15 5 0 16 -4 24 -10 12 -7 13 -6 3 7 -7
8 -10 18 -6 21 3 4 1 7 -5 7 -7 0 -12 -6 -12 -12 0 -9 -4 -8 -11 2 -9 13 -10
13 -6 0z"/>
<path d="M4959 3678 c-5 -18 -6 -38 -1 -34 7 8 12 36 6 36 -2 0 -4 -1 -5 -2z"/>
<path d="M5033 3613 c15 -4 16 -7 5 -21 -12 -15 -11 -16 4 -3 20 15 15 32 -10
30 -15 -1 -15 -2 1 -6z"/>
<path d="M5055 3580 c-3 -5 -3 -10 2 -10 4 0 1 -5 -7 -10 -8 -5 -10 -10 -4
-10 17 0 37 27 25 34 -5 4 -12 2 -16 -4z"/>
<path d="M5010 3546 c0 -2 7 -7 16 -10 8 -3 12 -2 9 4 -6 10 -25 14 -25 6z"/>
<path d="M5070 3503 c0 -4 11 -13 25 -20 14 -6 23 -7 19 -2 -8 13 -44 31 -44
22z"/>
<path d="M5079 3453 c-12 -16 -12 -17 2 -6 9 7 20 9 24 5 5 -4 5 -1 1 6 -9 16
-11 15 -27 -5z"/>
<path d="M5120 3456 c0 -2 7 -9 15 -16 9 -7 15 -8 15 -2 0 5 -7 12 -15 16 -8
3 -15 4 -15 2z"/>
<path d="M5113 3425 c0 -8 4 -12 9 -9 5 3 6 10 3 15 -9 13 -12 11 -12 -6z"/>
<path d="M7197 2975 c-6 -15 -1 -54 8 -64 3 -3 3 9 0 28 -3 21 -2 30 5 26 6
-3 7 0 4 9 -8 20 -10 20 -17 1z"/>
<path d="M7150 2936 c0 -3 9 -10 20 -16 11 -6 20 -8 20 -6 0 3 -9 10 -20 16
-11 6 -20 8 -20 6z"/>
<path d="M7156 2887 c3 -10 9 -15 12 -12 3 3 0 11 -7 18 -10 9 -11 8 -5 -6z"/>
<path d="M6300 2598 c0 -4 9 -8 20 -8 11 0 20 4 20 8 0 4 -9 8 -20 8 -11 0
-20 -4 -20 -8z"/>
<path d="M6221 2574 c6 -7 16 -11 21 -8 11 7 3 17 -18 20 -12 2 -13 -1 -3 -12z"/>
<path d="M6256 2563 c-6 -14 -5 -15 5 -6 7 7 10 15 7 18 -3 3 -9 -2 -12 -12z"/>
<path d="M6281 2558 c-13 -20 -12 -22 1 -11 8 7 18 10 22 6 4 -4 4 0 0 10 -8
21 -6 21 -23 -5z"/>
</g>
</svg>
